<svg xmlns="http://www.w3.org/2000/svg" xmlns:xlink="http://www.w3.org/1999/xlink" contentStyleType="text/css" data-diagram-type="CLASS" height="857px" preserveAspectRatio="none" style="width:1453px;height:857px;background:#F8FAFC;" version="1.1" viewBox="0 0 1453 857" width="1453px" zoomAndPan="magnify"><?plantuml 1.2026.3beta6?><defs/><g><rect fill="#F8FAFC" height="857" style="stroke:none;stroke-width:1;" width="1453" x="0" y="0"/><g class="title" data-source-line="1"><text fill="#000000" font-family="Microsoft YaHei" font-size="14" font-weight="700" lengthAdjust="spacing" textLength="202.8352" x="621.7143" y="22.9951">nk&#25512;&#21327;&#20390;&#25506;&#31649;&#29702;&#31995;&#32479; - &#27010;&#24565;&#31867;&#22270;</text></g><!--class User--><g class="entity" data-qualified-name="User" data-source-line="8" id="ent0002"><rect fill="#F1F1F1" height="145.7813" rx="2.5" ry="2.5" style="stroke:#181818;stroke-width:0.5;" width="142.9492" x="495.22" y="242.6369"/><ellipse cx="531.185" cy="258.6369" fill="#ADD1B2" rx="11" ry="11" style="stroke:#181818;stroke-width:1;"/><path d="M534.1538,264.2775 Q533.5757,264.5744 532.935,264.715 Q532.2944,264.8713 531.5913,264.8713 Q529.0913,264.8713 527.7632,263.2306 Q526.4507,261.5744 526.4507,258.4494 Q526.4507,255.3244 527.7632,253.6681 Q529.0913,252.0119 531.5913,252.0119 Q532.2944,252.0119 532.935,252.1681 Q533.5913,252.3244 534.1538,252.6213 L534.1538,255.34 Q533.5288,254.7619 532.935,254.4963 Q532.3413,254.215 531.7163,254.215 Q530.3725,254.215 529.685,255.2931 Q528.9975,256.3556 528.9975,258.4494 Q528.9975,260.5431 529.685,261.6213 Q530.3725,262.6838 531.7163,262.6838 Q532.3413,262.6838 532.935,262.4181 Q533.5288,262.1369 534.1538,261.5588 L534.1538,264.2775 Z " fill="#000000"/><text fill="#000000" font-family="Microsoft YaHei" font-size="14" lengthAdjust="spacing" textLength="64.3602" x="549.8439" y="263.4836">User &#29992;&#25143;</text><line style="stroke:#181818;stroke-width:0.5;" x1="496.22" x2="637.1692" y1="274.6369" y2="274.6369"/><text fill="#000000" font-family="Microsoft YaHei" font-size="14" lengthAdjust="spacing" textLength="110.6328" x="501.22" y="291.632">+openId: String</text><text fill="#000000" font-family="Microsoft YaHei" font-size="14" lengthAdjust="spacing" textLength="130.9492" x="501.22" y="307.9289">+nickname: String</text><text fill="#000000" font-family="Microsoft YaHei" font-size="14" lengthAdjust="spacing" textLength="78.5176" x="501.22" y="324.2257">+role: Role</text><text fill="#000000" font-family="Microsoft YaHei" font-size="14" lengthAdjust="spacing" textLength="117.6465" x="501.22" y="340.5226">+campus: String</text><line style="stroke:#181818;stroke-width:0.5;" x1="496.22" x2="637.1692" y1="347.8244" y2="347.8244"/><text fill="#000000" font-family="Microsoft YaHei" font-size="14" lengthAdjust="spacing" textLength="56.7588" x="501.22" y="364.8195">+login()</text><text fill="#000000" font-family="Microsoft YaHei" font-size="14" lengthAdjust="spacing" textLength="116.0674" x="501.22" y="381.1164">+updateProfile()</text></g><!--class Admin--><g class="entity" data-qualified-name="Admin" data-source-line="17" id="ent0003"><rect fill="#F1F1F1" height="113.1875" rx="2.5" ry="2.5" style="stroke:#181818;stroke-width:0.5;" width="151.8975" x="630.75" y="44.2969"/><ellipse cx="658.6124" cy="60.2969" fill="#ADD1B2" rx="11" ry="11" style="stroke:#181818;stroke-width:1;"/><path d="M661.5812,65.9375 Q661.0031,66.2344 660.3624,66.375 Q659.7218,66.5313 659.0187,66.5313 Q656.5187,66.5313 655.1906,64.8906 Q653.8781,63.2344 653.8781,60.1094 Q653.8781,56.9844 655.1906,55.3281 Q656.5187,53.6719 659.0187,53.6719 Q659.7218,53.6719 660.3624,53.8281 Q661.0187,53.9844 661.5812,54.2813 L661.5812,57 Q660.9562,56.4219 660.3624,56.1563 Q659.7687,55.875 659.1437,55.875 Q657.7999,55.875 657.1124,56.9531 Q656.4249,58.0156 656.4249,60.1094 Q656.4249,62.2031 657.1124,63.2813 Q657.7999,64.3438 659.1437,64.3438 Q659.7687,64.3438 660.3624,64.0781 Q660.9562,63.7969 661.5812,63.2188 L661.5812,65.9375 Z " fill="#000000"/><text fill="#000000" font-family="Microsoft YaHei" font-size="14" lengthAdjust="spacing" textLength="91.3143" x="675.4708" y="65.1436">Admin &#31649;&#29702;&#21592;</text><line style="stroke:#181818;stroke-width:0.5;" x1="631.75" x2="781.6475" y1="76.2969" y2="76.2969"/><text fill="#000000" font-family="Microsoft YaHei" font-size="14" lengthAdjust="spacing" textLength="136.4658" x="636.75" y="93.292">+whitelist: Boolean</text><text fill="#000000" font-family="Microsoft YaHei" font-size="14" lengthAdjust="spacing" textLength="129.3633" x="636.75" y="109.5889">+permissions: List</text><line style="stroke:#181818;stroke-width:0.5;" x1="631.75" x2="781.6475" y1="116.8906" y2="116.8906"/><text fill="#000000" font-family="Microsoft YaHei" font-size="14" lengthAdjust="spacing" textLength="139.8975" x="636.75" y="133.8857">+checkPermission()</text><text fill="#000000" font-family="Microsoft YaHei" font-size="14" lengthAdjust="spacing" textLength="128.0439" x="636.75" y="150.1826">+auditOperation()</text></g><!--class Puzzle--><g class="entity" data-qualified-name="Puzzle" data-source-line="24" id="ent0004"><rect fill="#F1F1F1" height="145.7813" rx="2.5" ry="2.5" style="stroke:#181818;stroke-width:0.5;" width="172.3894" x="271.5" y="242.6369"/><ellipse cx="286.5" cy="258.6369" fill="#ADD1B2" rx="11" ry="11" style="stroke:#181818;stroke-width:1;"/><path d="M289.4688,264.2775 Q288.8906,264.5744 288.25,264.715 Q287.6094,264.8713 286.9063,264.8713 Q284.4063,264.8713 283.0781,263.2306 Q281.7656,261.5744 281.7656,258.4494 Q281.7656,255.3244 283.0781,253.6681 Q284.4063,252.0119 286.9063,252.0119 Q287.6094,252.0119 288.25,252.1681 Q288.9063,252.3244 289.4688,252.6213 L289.4688,255.34 Q288.8438,254.7619 288.25,254.4963 Q287.6563,254.215 287.0313,254.215 Q285.6875,254.215 285,255.2931 Q284.3125,256.3556 284.3125,258.4494 Q284.3125,260.5431 285,261.6213 Q285.6875,262.6838 287.0313,262.6838 Q287.6563,262.6838 288.25,262.4181 Q288.8438,262.1369 289.4688,261.5588 L289.4688,264.2775 Z " fill="#000000"/><text fill="#000000" font-family="Microsoft YaHei" font-size="14" lengthAdjust="spacing" textLength="140.3894" x="300.5" y="263.4836">DailyPuzzle &#27599;&#26085;&#35868;&#39064;</text><line style="stroke:#181818;stroke-width:0.5;" x1="272.5" x2="442.8894" y1="274.6369" y2="274.6369"/><text fill="#000000" font-family="Microsoft YaHei" font-size="14" lengthAdjust="spacing" textLength="90.0498" x="277.5" y="291.632">+title: String</text><text fill="#000000" font-family="Microsoft YaHei" font-size="14" lengthAdjust="spacing" textLength="96.9336" x="277.5" y="307.9289">+options: List</text><text fill="#000000" font-family="Microsoft YaHei" font-size="14" lengthAdjust="spacing" textLength="113.2441" x="277.5" y="324.2257">+answer: String</text><text fill="#000000" font-family="Microsoft YaHei" font-size="14" lengthAdjust="spacing" textLength="154.7109" x="277.5" y="340.5226">+publishAt: DateTime</text><line style="stroke:#181818;stroke-width:0.5;" x1="272.5" x2="442.8894" y1="347.8244" y2="347.8244"/><text fill="#000000" font-family="Microsoft YaHei" font-size="14" lengthAdjust="spacing" textLength="98.0273" x="277.5" y="364.8195">+isAvailable()</text><text fill="#000000" font-family="Microsoft YaHei" font-size="14" lengthAdjust="spacing" textLength="115.2061" x="277.5" y="381.1164">+checkAnswer()</text></g><!--class Answer--><g class="entity" data-qualified-name="Answer" data-source-line="33" id="ent0005"><rect fill="#F1F1F1" height="145.7813" rx="2.5" ry="2.5" style="stroke:#181818;stroke-width:0.5;" width="193.2595" x="233.07" y="473.5669"/><ellipse cx="248.07" cy="489.5669" fill="#ADD1B2" rx="11" ry="11" style="stroke:#181818;stroke-width:1;"/><path d="M251.0388,495.2075 Q250.4606,495.5044 249.82,495.645 Q249.1794,495.8013 248.4763,495.8013 Q245.9763,495.8013 244.6481,494.1606 Q243.3356,492.5044 243.3356,489.3794 Q243.3356,486.2544 244.6481,484.5981 Q245.9763,482.9419 248.4763,482.9419 Q249.1794,482.9419 249.82,483.0981 Q250.4763,483.2544 251.0388,483.5513 L251.0388,486.27 Q250.4138,485.6919 249.82,485.4263 Q249.2263,485.145 248.6013,485.145 Q247.2575,485.145 246.57,486.2231 Q245.8825,487.2856 245.8825,489.3794 Q245.8825,491.4731 246.57,492.5513 Q247.2575,493.6138 248.6013,493.6138 Q249.2263,493.6138 249.82,493.3481 Q250.4138,493.0669 251.0388,492.4888 L251.0388,495.2075 Z " fill="#000000"/><text fill="#000000" font-family="Microsoft YaHei" font-size="14" lengthAdjust="spacing" textLength="161.2595" x="262.07" y="494.4136">AnswerRecord &#31572;&#39064;&#35760;&#24405;</text><line style="stroke:#181818;stroke-width:0.5;" x1="234.07" x2="425.3295" y1="505.5669" y2="505.5669"/><text fill="#000000" font-family="Microsoft YaHei" font-size="14" lengthAdjust="spacing" textLength="106.2305" x="239.07" y="522.562">+userId: String</text><text fill="#000000" font-family="Microsoft YaHei" font-size="14" lengthAdjust="spacing" textLength="120.6543" x="239.07" y="538.8589">+puzzleId: String</text><text fill="#000000" font-family="Microsoft YaHei" font-size="14" lengthAdjust="spacing" textLength="121.7754" x="239.07" y="555.1557">+selected: String</text><text fill="#000000" font-family="Microsoft YaHei" font-size="14" lengthAdjust="spacing" textLength="127.1621" x="239.07" y="571.4526">+correct: Boolean</text><line style="stroke:#181818;stroke-width:0.5;" x1="234.07" x2="425.3295" y1="578.7544" y2="578.7544"/><text fill="#000000" font-family="Microsoft YaHei" font-size="14" lengthAdjust="spacing" textLength="157.3359" x="239.07" y="595.7495">+ensureOncePerDay()</text><text fill="#000000" font-family="Microsoft YaHei" font-size="14" lengthAdjust="spacing" textLength="124.0723" x="239.07" y="612.0464">+revealAnalysis()</text></g><!--class Credit--><g class="entity" data-qualified-name="Credit" data-source-line="42" id="ent0006"><rect fill="#F1F1F1" height="145.7813" rx="2.5" ry="2.5" style="stroke:#181818;stroke-width:0.5;" width="192.1885" x="816.6" y="473.5669"/><ellipse cx="831.8502" cy="489.5669" fill="#ADD1B2" rx="11" ry="11" style="stroke:#181818;stroke-width:1;"/><path d="M834.8189,495.2075 Q834.2408,495.5044 833.6002,495.645 Q832.9595,495.8013 832.2564,495.8013 Q829.7564,495.8013 828.4283,494.1606 Q827.1158,492.5044 827.1158,489.3794 Q827.1158,486.2544 828.4283,484.5981 Q829.7564,482.9419 832.2564,482.9419 Q832.9595,482.9419 833.6002,483.0981 Q834.2564,483.2544 834.8189,483.5513 L834.8189,486.27 Q834.1939,485.6919 833.6002,485.4263 Q833.0064,485.145 832.3814,485.145 Q831.0377,485.145 830.3502,486.2231 Q829.6627,487.2856 829.6627,489.3794 Q829.6627,491.4731 830.3502,492.5513 Q831.0377,493.6138 832.3814,493.6138 Q833.0064,493.6138 833.6002,493.3481 Q834.1939,493.0669 834.8189,492.4888 L834.8189,495.2075 Z " fill="#000000"/><text fill="#000000" font-family="Microsoft YaHei" font-size="14" lengthAdjust="spacing" textLength="159.6326" x="845.9057" y="494.4136">CreditAccount &#31215;&#20998;&#36134;&#25143;</text><line style="stroke:#181818;stroke-width:0.5;" x1="817.6" x2="1007.7885" y1="505.5669" y2="505.5669"/><text fill="#000000" font-family="Microsoft YaHei" font-size="14" lengthAdjust="spacing" textLength="113.8115" x="822.6" y="522.562">+totalCredit: Int</text><text fill="#000000" font-family="Microsoft YaHei" font-size="14" lengthAdjust="spacing" textLength="180.1885" x="822.6" y="538.8589">+exchangeableCredit: Int</text><text fill="#000000" font-family="Microsoft YaHei" font-size="14" lengthAdjust="spacing" textLength="70.7041" x="822.6" y="555.1557">+rank: Int</text><line style="stroke:#181818;stroke-width:0.5;" x1="817.6" x2="1007.7885" y1="562.4575" y2="562.4575"/><text fill="#000000" font-family="Microsoft YaHei" font-size="14" lengthAdjust="spacing" textLength="135.9326" x="822.6" y="579.4526">+addPuzzleCredit()</text><text fill="#000000" font-family="Microsoft YaHei" font-size="14" lengthAdjust="spacing" textLength="77.9434" x="822.6" y="595.7495">+transfer()</text><text fill="#000000" font-family="Microsoft YaHei" font-size="14" lengthAdjust="spacing" textLength="162.1279" x="822.6" y="612.0464">+deductForExchange()</text></g><!--class Shop--><g class="entity" data-qualified-name="Shop" data-source-line="51" id="ent0007"><rect fill="#F1F1F1" height="129.4844" rx="2.5" ry="2.5" style="stroke:#181818;stroke-width:0.5;" width="159.531" x="862.93" y="704.4969"/><ellipse cx="877.93" cy="720.4969" fill="#ADD1B2" rx="11" ry="11" style="stroke:#181818;stroke-width:1;"/><path d="M880.8988,726.1375 Q880.3206,726.4344 879.68,726.575 Q879.0394,726.7313 878.3363,726.7313 Q875.8363,726.7313 874.5081,725.0906 Q873.1956,723.4344 873.1956,720.3094 Q873.1956,717.1844 874.5081,715.5281 Q875.8363,713.8719 878.3363,713.8719 Q879.0394,713.8719 879.68,714.0281 Q880.3363,714.1844 880.8988,714.4813 L880.8988,717.2 Q880.2738,716.6219 879.68,716.3563 Q879.0863,716.075 878.4613,716.075 Q877.1175,716.075 876.43,717.1531 Q875.7425,718.2156 875.7425,720.3094 Q875.7425,722.4031 876.43,723.4813 Q877.1175,724.5438 878.4613,724.5438 Q879.0863,724.5438 879.68,724.2781 Q880.2738,723.9969 880.8988,723.4188 L880.8988,726.1375 Z " fill="#000000"/><text fill="#000000" font-family="Microsoft YaHei" font-size="14" lengthAdjust="spacing" textLength="127.531" x="891.93" y="725.3436">ShopItem &#20817;&#25442;&#21830;&#21697;</text><line style="stroke:#181818;stroke-width:0.5;" x1="863.93" x2="1021.461" y1="736.4969" y2="736.4969"/><text fill="#000000" font-family="Microsoft YaHei" font-size="14" lengthAdjust="spacing" textLength="102.3818" x="868.93" y="753.492">+name: String</text><text fill="#000000" font-family="Microsoft YaHei" font-size="14" lengthAdjust="spacing" textLength="141.0732" x="868.93" y="769.7889">+requiredCredit: Int</text><text fill="#000000" font-family="Microsoft YaHei" font-size="14" lengthAdjust="spacing" textLength="76.542" x="868.93" y="786.0857">+stock: Int</text><line style="stroke:#181818;stroke-width:0.5;" x1="863.93" x2="1021.461" y1="793.3875" y2="793.3875"/><text fill="#000000" font-family="Microsoft YaHei" font-size="14" lengthAdjust="spacing" textLength="91.0752" x="868.93" y="810.3826">+exchange()</text><text fill="#000000" font-family="Microsoft YaHei" font-size="14" lengthAdjust="spacing" textLength="125.4531" x="868.93" y="826.6795">+decreaseStock()</text></g><!--class Activity--><g class="entity" data-qualified-name="Activity" data-source-line="59" id="ent0008"><rect fill="#F1F1F1" height="145.7813" rx="2.5" ry="2.5" style="stroke:#181818;stroke-width:0.5;" width="132.6816" x="899.36" y="242.6369"/><ellipse cx="921.3931" cy="258.6369" fill="#ADD1B2" rx="11" ry="11" style="stroke:#181818;stroke-width:1;"/><path d="M924.3618,264.2775 Q923.7837,264.5744 923.1431,264.715 Q922.5024,264.8713 921.7993,264.8713 Q919.2993,264.8713 917.9712,263.2306 Q916.6587,261.5744 916.6587,258.4494 Q916.6587,255.3244 917.9712,253.6681 Q919.2993,252.0119 921.7993,252.0119 Q922.5024,252.0119 923.1431,252.1681 Q923.7993,252.3244 924.3618,252.6213 L924.3618,255.34 Q923.7368,254.7619 923.1431,254.4963 Q922.5493,254.215 921.9243,254.215 Q920.5806,254.215 919.8931,255.2931 Q919.2056,256.3556 919.2056,258.4494 Q919.2056,260.5431 919.8931,261.6213 Q920.5806,262.6838 921.9243,262.6838 Q922.5493,262.6838 923.1431,262.4181 Q923.7368,262.1369 924.3618,261.5588 L924.3618,264.2775 Z " fill="#000000"/><text fill="#000000" font-family="Microsoft YaHei" font-size="14" lengthAdjust="spacing" textLength="85.0526" x="936.956" y="263.4836">Activity &#27963;&#21160;</text><line style="stroke:#181818;stroke-width:0.5;" x1="900.36" x2="1031.0416" y1="274.6369" y2="274.6369"/><text fill="#000000" font-family="Microsoft YaHei" font-size="14" lengthAdjust="spacing" textLength="90.0498" x="905.36" y="291.632">+title: String</text><text fill="#000000" font-family="Microsoft YaHei" font-size="14" lengthAdjust="spacing" textLength="120.6816" x="905.36" y="307.9289">+time: DateTime</text><text fill="#000000" font-family="Microsoft YaHei" font-size="14" lengthAdjust="spacing" textLength="118.2275" x="905.36" y="324.2257">+location: String</text><text fill="#000000" font-family="Microsoft YaHei" font-size="14" lengthAdjust="spacing" textLength="98.4922" x="905.36" y="340.5226">+capacity: Int</text><line style="stroke:#181818;stroke-width:0.5;" x1="900.36" x2="1031.0416" y1="347.8244" y2="347.8244"/><text fill="#000000" font-family="Microsoft YaHei" font-size="14" lengthAdjust="spacing" textLength="106.0732" x="905.36" y="364.8195">+canRegister()</text><text fill="#000000" font-family="Microsoft YaHei" font-size="14" lengthAdjust="spacing" textLength="95.2314" x="905.36" y="381.1164">+canCancel()</text></g><!--class Registration--><g class="entity" data-qualified-name="Registration" data-source-line="68" id="ent0009"><rect fill="#F1F1F1" height="129.4844" rx="2.5" ry="2.5" style="stroke:#181818;stroke-width:0.5;" width="188.21" x="1043.59" y="481.7169"/><ellipse cx="1063.4083" cy="497.7169" fill="#ADD1B2" rx="11" ry="11" style="stroke:#181818;stroke-width:1;"/><path d="M1066.377,503.3575 Q1065.7989,503.6544 1065.1583,503.795 Q1064.5176,503.9513 1063.8145,503.9513 Q1061.3145,503.9513 1059.9864,502.3106 Q1058.6739,500.6544 1058.6739,497.5294 Q1058.6739,494.4044 1059.9864,492.7481 Q1061.3145,491.0919 1063.8145,491.0919 Q1064.5176,491.0919 1065.1583,491.2481 Q1065.8145,491.4044 1066.377,491.7013 L1066.377,494.42 Q1065.752,493.8419 1065.1583,493.5763 Q1064.5645,493.295 1063.9395,493.295 Q1062.5958,493.295 1061.9083,494.3731 Q1061.2208,495.4356 1061.2208,497.5294 Q1061.2208,499.6231 1061.9083,500.7013 Q1062.5958,501.7638 1063.9395,501.7638 Q1064.5645,501.7638 1065.1583,501.4981 Q1065.752,501.2169 1066.377,500.6388 L1066.377,503.3575 Z " fill="#000000"/><text fill="#000000" font-family="Microsoft YaHei" font-size="14" lengthAdjust="spacing" textLength="145.5027" x="1078.479" y="502.5636">Registration &#25253;&#21517;&#35760;&#24405;</text><line style="stroke:#181818;stroke-width:0.5;" x1="1044.59" x2="1230.8" y1="513.7169" y2="513.7169"/><text fill="#000000" font-family="Microsoft YaHei" font-size="14" lengthAdjust="spacing" textLength="106.2305" x="1049.59" y="530.712">+userId: String</text><text fill="#000000" font-family="Microsoft YaHei" font-size="14" lengthAdjust="spacing" textLength="127.2988" x="1049.59" y="547.0089">+activityId: String</text><text fill="#000000" font-family="Microsoft YaHei" font-size="14" lengthAdjust="spacing" textLength="105.6973" x="1049.59" y="563.3057">+status: String</text><line style="stroke:#181818;stroke-width:0.5;" x1="1044.59" x2="1230.8" y1="570.6075" y2="570.6075"/><text fill="#000000" font-family="Microsoft YaHei" font-size="14" lengthAdjust="spacing" textLength="76.9521" x="1049.59" y="587.6026">+register()</text><text fill="#000000" font-family="Microsoft YaHei" font-size="14" lengthAdjust="spacing" textLength="176.21" x="1049.59" y="603.8995">+cancelBeforeDeadline()</text></g><!--class Asset--><g class="entity" data-qualified-name="Asset" data-source-line="76" id="ent0010"><rect fill="#F1F1F1" height="162.0781" rx="2.5" ry="2.5" style="stroke:#181818;stroke-width:0.5;" width="158.7949" x="71.3" y="234.4869"/><ellipse cx="97.1937" cy="250.4869" fill="#ADD1B2" rx="11" ry="11" style="stroke:#181818;stroke-width:1;"/><path d="M100.1624,256.1275 Q99.5843,256.4244 98.9437,256.565 Q98.303,256.7213 97.5999,256.7213 Q95.0999,256.7213 93.7718,255.0806 Q92.4593,253.4244 92.4593,250.2994 Q92.4593,247.1744 93.7718,245.5181 Q95.0999,243.8619 97.5999,243.8619 Q98.303,243.8619 98.9437,244.0181 Q99.5999,244.1744 100.1624,244.4713 L100.1624,247.19 Q99.5374,246.6119 98.9437,246.3463 Q98.3499,246.065 97.7249,246.065 Q96.3812,246.065 95.6937,247.1431 Q95.0062,248.2056 95.0062,250.2994 Q95.0062,252.3931 95.6937,253.4713 Q96.3812,254.5338 97.7249,254.5338 Q98.3499,254.5338 98.9437,254.2681 Q99.5374,253.9869 100.1624,253.4088 L100.1624,256.1275 Z " fill="#000000"/><text fill="#000000" font-family="Microsoft YaHei" font-size="14" lengthAdjust="spacing" textLength="102.5868" x="113.6145" y="255.3336">AssetItem &#29289;&#36164;</text><line style="stroke:#181818;stroke-width:0.5;" x1="72.3" x2="229.0949" y1="266.4869" y2="266.4869"/><text fill="#000000" font-family="Microsoft YaHei" font-size="14" lengthAdjust="spacing" textLength="102.3818" x="77.3" y="283.482">+name: String</text><text fill="#000000" font-family="Microsoft YaHei" font-size="14" lengthAdjust="spacing" textLength="124.5508" x="77.3" y="299.7789">+category: String</text><text fill="#000000" font-family="Microsoft YaHei" font-size="14" lengthAdjust="spacing" textLength="117.6465" x="77.3" y="316.0757">+campus: String</text><text fill="#000000" font-family="Microsoft YaHei" font-size="14" lengthAdjust="spacing" textLength="146.7949" x="77.3" y="332.3726">+status: AssetStatus</text><line style="stroke:#181818;stroke-width:0.5;" x1="72.3" x2="229.0949" y1="339.6744" y2="339.6744"/><text fill="#000000" font-family="Microsoft YaHei" font-size="14" lengthAdjust="spacing" textLength="110.8789" x="77.3" y="356.6695">+applyBorrow()</text><text fill="#000000" font-family="Microsoft YaHei" font-size="14" lengthAdjust="spacing" textLength="125.9316" x="77.3" y="372.9664">+markBorrowed()</text><text fill="#000000" font-family="Microsoft YaHei" font-size="14" lengthAdjust="spacing" textLength="121.8779" x="77.3" y="389.2632">+returnToStock()</text></g><!--class Borrow--><g class="entity" data-qualified-name="Borrow" data-source-line="86" id="ent0011"><rect fill="#F1F1F1" height="129.4844" rx="2.5" ry="2.5" style="stroke:#181818;stroke-width:0.5;" width="191.3933" x="7" y="481.7169"/><ellipse cx="22" cy="497.7169" fill="#ADD1B2" rx="11" ry="11" style="stroke:#181818;stroke-width:1;"/><path d="M24.9688,503.3575 Q24.3906,503.6544 23.75,503.795 Q23.1094,503.9513 22.4063,503.9513 Q19.9063,503.9513 18.5781,502.3106 Q17.2656,500.6544 17.2656,497.5294 Q17.2656,494.4044 18.5781,492.7481 Q19.9063,491.0919 22.4063,491.0919 Q23.1094,491.0919 23.75,491.2481 Q24.4063,491.4044 24.9688,491.7013 L24.9688,494.42 Q24.3438,493.8419 23.75,493.5763 Q23.1563,493.295 22.5313,493.295 Q21.1875,493.295 20.5,494.3731 Q19.8125,495.4356 19.8125,497.5294 Q19.8125,499.6231 20.5,500.7013 Q21.1875,501.7638 22.5313,501.7638 Q23.1563,501.7638 23.75,501.4981 Q24.3438,501.2169 24.9688,500.6388 L24.9688,503.3575 Z " fill="#000000"/><text fill="#000000" font-family="Microsoft YaHei" font-size="14" lengthAdjust="spacing" textLength="159.3933" x="36" y="502.5636">BorrowRecord &#20511;&#38405;&#35760;&#24405;</text><line style="stroke:#181818;stroke-width:0.5;" x1="8" x2="197.3933" y1="513.7169" y2="513.7169"/><text fill="#000000" font-family="Microsoft YaHei" font-size="14" lengthAdjust="spacing" textLength="139.043" x="13" y="530.712">+borrowerId: String</text><text fill="#000000" font-family="Microsoft YaHei" font-size="14" lengthAdjust="spacing" textLength="112.9639" x="13" y="547.0089">+assetId: String</text><text fill="#000000" font-family="Microsoft YaHei" font-size="14" lengthAdjust="spacing" textLength="143.1172" x="13" y="563.3057">+state: BorrowState</text><line style="stroke:#181818;stroke-width:0.5;" x1="8" x2="197.3933" y1="570.6075" y2="570.6075"/><text fill="#000000" font-family="Microsoft YaHei" font-size="14" lengthAdjust="spacing" textLength="129.4385" x="13" y="587.6026">+cancelInTransit()</text><text fill="#000000" font-family="Microsoft YaHei" font-size="14" lengthAdjust="spacing" textLength="143.1992" x="13" y="603.8995">+confirmBorrowed()</text></g><!--class Dud--><g class="entity" data-qualified-name="Dud" data-source-line="94" id="ent0012"><rect fill="#F1F1F1" height="129.4844" rx="2.5" ry="2.5" style="stroke:#181818;stroke-width:0.5;" width="191.4958" x="672.95" y="250.7869"/><ellipse cx="687.95" cy="266.7869" fill="#ADD1B2" rx="11" ry="11" style="stroke:#181818;stroke-width:1;"/><path d="M690.9188,272.4275 Q690.3406,272.7244 689.7,272.865 Q689.0594,273.0213 688.3563,273.0213 Q685.8563,273.0213 684.5281,271.3806 Q683.2156,269.7244 683.2156,266.5994 Q683.2156,263.4744 684.5281,261.8181 Q685.8563,260.1619 688.3563,260.1619 Q689.0594,260.1619 689.7,260.3181 Q690.3563,260.4744 690.9188,260.7713 L690.9188,263.49 Q690.2938,262.9119 689.7,262.6463 Q689.1063,262.365 688.4813,262.365 Q687.1375,262.365 686.45,263.4431 Q685.7625,264.5056 685.7625,266.5994 Q685.7625,268.6931 686.45,269.7713 Q687.1375,270.8338 688.4813,270.8338 Q689.1063,270.8338 689.7,270.5681 Q690.2938,270.2869 690.9188,269.7088 L690.9188,272.4275 Z " fill="#000000"/><text fill="#000000" font-family="Microsoft YaHei" font-size="14" lengthAdjust="spacing" textLength="159.4958" x="701.95" y="271.6336">ReplyRule Dud&#22238;&#22797;&#35268;&#21017;</text><line style="stroke:#181818;stroke-width:0.5;" x1="673.95" x2="863.4458" y1="282.7869" y2="282.7869"/><text fill="#000000" font-family="Microsoft YaHei" font-size="14" lengthAdjust="spacing" textLength="112.3281" x="678.95" y="299.782">+keywords: List</text><text fill="#000000" font-family="Microsoft YaHei" font-size="14" lengthAdjust="spacing" textLength="143.5479" x="678.95" y="316.0789">+matchMode: Enum</text><text fill="#000000" font-family="Microsoft YaHei" font-size="14" lengthAdjust="spacing" textLength="129.0488" x="678.95" y="332.3757">+replyText: String</text><line style="stroke:#181818;stroke-width:0.5;" x1="673.95" x2="863.4458" y1="339.6775" y2="339.6775"/><text fill="#000000" font-family="Microsoft YaHei" font-size="14" lengthAdjust="spacing" textLength="128.29" x="678.95" y="356.6726">+matchMessage()</text><text fill="#000000" font-family="Microsoft YaHei" font-size="14" lengthAdjust="spacing" textLength="103.0859" x="678.95" y="372.9695">+updateRule()</text></g><!--class Card--><g class="entity" data-qualified-name="Card" data-source-line="102" id="ent0013"><rect fill="#F1F1F1" height="129.4844" rx="2.5" ry="2.5" style="stroke:#181818;stroke-width:0.5;" width="192.9177" x="461.24" y="481.7169"/><ellipse cx="476.24" cy="497.7169" fill="#ADD1B2" rx="11" ry="11" style="stroke:#181818;stroke-width:1;"/><path d="M479.2088,503.3575 Q478.6306,503.6544 477.99,503.795 Q477.3494,503.9513 476.6463,503.9513 Q474.1463,503.9513 472.8181,502.3106 Q471.5056,500.6544 471.5056,497.5294 Q471.5056,494.4044 472.8181,492.7481 Q474.1463,491.0919 476.6463,491.0919 Q477.3494,491.0919 477.99,491.2481 Q478.6463,491.4044 479.2088,491.7013 L479.2088,494.42 Q478.5838,493.8419 477.99,493.5763 Q477.3963,493.295 476.7713,493.295 Q475.4275,493.295 474.74,494.3731 Q474.0525,495.4356 474.0525,497.5294 Q474.0525,499.6231 474.74,500.7013 Q475.4275,501.7638 476.7713,501.7638 Q477.3963,501.7638 477.99,501.4981 Q478.5838,501.2169 479.2088,500.6388 L479.2088,503.3575 Z " fill="#000000"/><text fill="#000000" font-family="Microsoft YaHei" font-size="14" lengthAdjust="spacing" textLength="160.9177" x="490.24" y="502.5636">DetectiveCard &#20390;&#25506;&#21517;&#29255;</text><line style="stroke:#181818;stroke-width:0.5;" x1="462.24" x2="653.1577" y1="513.7169" y2="513.7169"/><text fill="#000000" font-family="Microsoft YaHei" font-size="14" lengthAdjust="spacing" textLength="106.2305" x="467.24" y="530.712">+userId: String</text><text fill="#000000" font-family="Microsoft YaHei" font-size="14" lengthAdjust="spacing" textLength="84.0205" x="467.24" y="547.0089">+bio: String</text><text fill="#000000" font-family="Microsoft YaHei" font-size="14" lengthAdjust="spacing" textLength="96.25" x="467.24" y="563.3057">+style: String</text><line style="stroke:#181818;stroke-width:0.5;" x1="462.24" x2="653.1577" y1="570.6075" y2="570.6075"/><text fill="#000000" font-family="Microsoft YaHei" font-size="14" lengthAdjust="spacing" textLength="82.5303" x="467.24" y="587.6026">+editCard()</text><text fill="#000000" font-family="Microsoft YaHei" font-size="14" lengthAdjust="spacing" textLength="87.8896" x="467.24" y="603.8995">+viewCard()</text></g><!--class Post--><g class="entity" data-qualified-name="Post" data-source-line="110" id="ent0014"><rect fill="#F1F1F1" height="145.7813" rx="2.5" ry="2.5" style="stroke:#181818;stroke-width:0.5;" width="207.6628" x="619.87" y="696.3469"/><ellipse cx="634.87" cy="712.3469" fill="#ADD1B2" rx="11" ry="11" style="stroke:#181818;stroke-width:1;"/><path d="M637.8388,717.9875 Q637.2606,718.2844 636.62,718.425 Q635.9794,718.5813 635.2763,718.5813 Q632.7763,718.5813 631.4481,716.9406 Q630.1356,715.2844 630.1356,712.1594 Q630.1356,709.0344 631.4481,707.3781 Q632.7763,705.7219 635.2763,705.7219 Q635.9794,705.7219 636.62,705.8781 Q637.2763,706.0344 637.8388,706.3313 L637.8388,709.05 Q637.2138,708.4719 636.62,708.2063 Q636.0263,707.925 635.4013,707.925 Q634.0575,707.925 633.37,709.0031 Q632.6825,710.0656 632.6825,712.1594 Q632.6825,714.2531 633.37,715.3313 Q634.0575,716.3938 635.4013,716.3938 Q636.0263,716.3938 636.62,716.1281 Q637.2138,715.8469 637.8388,715.2688 L637.8388,717.9875 Z " fill="#000000"/><text fill="#000000" font-family="Microsoft YaHei" font-size="14" lengthAdjust="spacing" textLength="175.6628" x="648.87" y="717.1936">CommissionPost &#20107;&#20214;&#22996;&#25176;</text><line style="stroke:#181818;stroke-width:0.5;" x1="620.87" x2="826.5328" y1="728.3469" y2="728.3469"/><text fill="#000000" font-family="Microsoft YaHei" font-size="14" lengthAdjust="spacing" textLength="140.6563" x="625.87" y="745.342">+publisherId: String</text><text fill="#000000" font-family="Microsoft YaHei" font-size="14" lengthAdjust="spacing" textLength="88.4297" x="625.87" y="761.6389">+reward: Int</text><text fill="#000000" font-family="Microsoft YaHei" font-size="14" lengthAdjust="spacing" textLength="105.6973" x="625.87" y="777.9357">+status: String</text><line style="stroke:#181818;stroke-width:0.5;" x1="620.87" x2="826.5328" y1="785.2375" y2="785.2375"/><text fill="#000000" font-family="Microsoft YaHei" font-size="14" lengthAdjust="spacing" textLength="69.6172" x="625.87" y="802.2326">+accept()</text><text fill="#000000" font-family="Microsoft YaHei" font-size="14" lengthAdjust="spacing" textLength="73.6709" x="625.87" y="818.5295">+resolve()</text><text fill="#000000" font-family="Microsoft YaHei" font-size="14" lengthAdjust="spacing" textLength="142.7344" x="625.87" y="834.8264">+distributeReward()</text></g><!--class Feedback--><g class="entity" data-qualified-name="Feedback" data-source-line="119" id="ent0015"><rect fill="#F1F1F1" height="129.4844" rx="2.5" ry="2.5" style="stroke:#181818;stroke-width:0.5;" width="171.1338" x="1267.13" y="481.7169"/><ellipse cx="1287.1913" cy="497.7169" fill="#ADD1B2" rx="11" ry="11" style="stroke:#181818;stroke-width:1;"/><path d="M1290.16,503.3575 Q1289.5819,503.6544 1288.9413,503.795 Q1288.3007,503.9513 1287.5975,503.9513 Q1285.0975,503.9513 1283.7694,502.3106 Q1282.4569,500.6544 1282.4569,497.5294 Q1282.4569,494.4044 1283.7694,492.7481 Q1285.0975,491.0919 1287.5975,491.0919 Q1288.3007,491.0919 1288.9413,491.2481 Q1289.5975,491.4044 1290.16,491.7013 L1290.16,494.42 Q1289.535,493.8419 1288.9413,493.5763 Q1288.3475,493.295 1287.7225,493.295 Q1286.3788,493.295 1285.6913,494.3731 Q1285.0038,495.4356 1285.0038,497.5294 Q1285.0038,499.6231 1285.6913,500.7013 Q1286.3788,501.7638 1287.7225,501.7638 Q1288.3475,501.7638 1288.9413,501.4981 Q1289.535,501.2169 1290.16,500.6388 L1290.16,503.3575 Z " fill="#000000"/><text fill="#000000" font-family="Microsoft YaHei" font-size="14" lengthAdjust="spacing" textLength="127.8865" x="1302.316" y="502.5636">Feedback &#21453;&#39304;&#24314;&#35758;</text><line style="stroke:#181818;stroke-width:0.5;" x1="1268.13" x2="1437.2638" y1="513.7169" y2="513.7169"/><text fill="#000000" font-family="Microsoft YaHei" font-size="14" lengthAdjust="spacing" textLength="129.2607" x="1273.13" y="530.712">+authorId: String?</text><text fill="#000000" font-family="Microsoft YaHei" font-size="14" lengthAdjust="spacing" textLength="116.2793" x="1273.13" y="547.0089">+content: String</text><text fill="#000000" font-family="Microsoft YaHei" font-size="14" lengthAdjust="spacing" textLength="159.1338" x="1273.13" y="563.3057">+anonymous: Boolean</text><line style="stroke:#181818;stroke-width:0.5;" x1="1268.13" x2="1437.2638" y1="570.6075" y2="570.6075"/><text fill="#000000" font-family="Microsoft YaHei" font-size="14" lengthAdjust="spacing" textLength="70.7246" x="1273.13" y="587.6026">+submit()</text><text fill="#000000" font-family="Microsoft YaHei" font-size="14" lengthAdjust="spacing" textLength="116.9902" x="1273.13" y="603.8995">+markHandled()</text></g><!--class Recommendation--><g class="entity" data-qualified-name="Recommendation" data-source-line="127" id="ent0016"><rect fill="#F1F1F1" height="145.7813" rx="2.5" ry="2.5" style="stroke:#181818;stroke-width:0.5;" width="216.0984" x="1066.65" y="242.6369"/><ellipse cx="1081.65" cy="258.6369" fill="#ADD1B2" rx="11" ry="11" style="stroke:#181818;stroke-width:1;"/><path d="M1084.6188,264.2775 Q1084.0406,264.5744 1083.4,264.715 Q1082.7594,264.8713 1082.0563,264.8713 Q1079.5563,264.8713 1078.2281,263.2306 Q1076.9156,261.5744 1076.9156,258.4494 Q1076.9156,255.3244 1078.2281,253.6681 Q1079.5563,252.0119 1082.0563,252.0119 Q1082.7594,252.0119 1083.4,252.1681 Q1084.0563,252.3244 1084.6188,252.6213 L1084.6188,255.34 Q1083.9938,254.7619 1083.4,254.4963 Q1082.8063,254.215 1082.1813,254.215 Q1080.8375,254.215 1080.15,255.2931 Q1079.4625,256.3556 1079.4625,258.4494 Q1079.4625,260.5431 1080.15,261.6213 Q1080.8375,262.6838 1082.1813,262.6838 Q1082.8063,262.6838 1083.4,262.4181 Q1083.9938,262.1369 1084.6188,261.5588 L1084.6188,264.2775 Z " fill="#000000"/><text fill="#000000" font-family="Microsoft YaHei" font-size="14" lengthAdjust="spacing" textLength="184.0984" x="1095.65" y="263.4836">Recommendation &#25512;&#33616;&#20869;&#23481;</text><line style="stroke:#181818;stroke-width:0.5;" x1="1067.65" x2="1281.7484" y1="274.6369" y2="274.6369"/><text fill="#000000" font-family="Microsoft YaHei" font-size="14" lengthAdjust="spacing" textLength="90.0498" x="1072.65" y="291.632">+title: String</text><text fill="#000000" font-family="Microsoft YaHei" font-size="14" lengthAdjust="spacing" textLength="93.9531" x="1072.65" y="307.9289">+type: String</text><text fill="#000000" font-family="Microsoft YaHei" font-size="14" lengthAdjust="spacing" textLength="161.3281" x="1072.65" y="324.2257">+recommender: String</text><text fill="#000000" font-family="Microsoft YaHei" font-size="14" lengthAdjust="spacing" textLength="130.252" x="1072.65" y="340.5226">+reasonUrl: String</text><line style="stroke:#181818;stroke-width:0.5;" x1="1067.65" x2="1281.7484" y1="347.8244" y2="347.8244"/><text fill="#000000" font-family="Microsoft YaHei" font-size="14" lengthAdjust="spacing" textLength="73.2471" x="1072.65" y="364.8195">+publish()</text><text fill="#000000" font-family="Microsoft YaHei" font-size="14" lengthAdjust="spacing" textLength="96.1338" x="1072.65" y="381.1164">+viewDetail()</text></g><!--link Admin to User--><g class="link" data-entity-1="ent0003" data-entity-2="ent0002" data-link-type="extension" data-source-line="136" id="lnk17"><path codeLine="136" d="M661.97,157.7569 C654.64,167.5169 647.29,177.6769 640.7,187.4869 C629.01,204.8569 626.3056,208.5882 615.6756,226.7682" fill="none" id="Admin-to-User" style="stroke:#181818;stroke-width:1;"/><polygon fill="none" points="606.59,242.3069,620.8552,229.7967,610.496,223.7396,606.59,242.3069" style="stroke:#181818;stroke-width:1;"/><text fill="#000000" font-family="Microsoft YaHei" font-size="13" lengthAdjust="spacing" textLength="82.38" x="641.7" y="200.5538">&#32487;&#25215;/&#25193;&#23637;&#26435;&#38480;</text></g><!--link User to Answer--><g class="link" data-entity-1="ent0002" data-entity-2="ent0005" data-link-type="dependency" data-source-line="137" id="lnk18"><path codeLine="137" d="M502.24,388.7869 C485.23,407.0569 466.61,426.3669 448.7,443.5669 C438.5,453.3569 432.0201,459.397 421.0201,469.147" fill="none" id="User-to-Answer" style="stroke:#181818;stroke-width:1;"/><polygon fill="#181818" points="416.53,473.1269,425.9184,470.1505,420.2717,469.8103,420.6119,464.1637,416.53,473.1269" style="stroke:#181818;stroke-width:1;"/><text fill="#000000" font-family="Microsoft YaHei" font-size="13" lengthAdjust="spacing" textLength="8.271" x="487.7283" y="408.5575">1</text><text fill="#000000" font-family="Microsoft YaHei" font-size="13" lengthAdjust="spacing" textLength="6.5" x="418.5439" y="462.4959">*</text></g><!--link Puzzle to Answer--><g class="link" data-entity-1="ent0004" data-entity-2="ent0005" data-link-type="dependency" data-source-line="138" id="lnk19"><path codeLine="138" d="M348.88,388.6469 C345.57,415.6469 342.5479,440.3512 339.2479,467.3512" fill="none" id="Puzzle-to-Answer" style="stroke:#181818;stroke-width:1;"/><polygon fill="#181818" points="338.52,473.3069,343.5823,464.8586,339.1266,468.3438,335.6414,463.8881,338.52,473.3069" style="stroke:#181818;stroke-width:1;"/><text fill="#000000" font-family="Microsoft YaHei" font-size="13" lengthAdjust="spacing" textLength="8.271" x="339.6715" y="408.4041">1</text><text fill="#000000" font-family="Microsoft YaHei" font-size="13" lengthAdjust="spacing" textLength="6.5" x="333.1175" y="462.4413">*</text></g><!--link User to Credit--><g class="link" data-entity-1="ent0002" data-entity-2="ent0006" data-link-type="dependency" data-source-line="139" id="lnk20"><path codeLine="139" d="M638.62,385.5269 C644.21,389.5269 649.93,393.2569 655.7,396.5669 C693.74,418.3769 710.59,406.7169 749.7,426.5669 C775.31,439.5569 796.3782,452.9108 819.7882,469.8408" fill="none" id="User-to-Credit" style="stroke:#181818;stroke-width:1;"/><polygon fill="#181818" points="824.65,473.3569,819.7013,464.8416,820.5985,470.4268,815.0132,471.324,824.65,473.3569" style="stroke:#181818;stroke-width:1;"/><text fill="#000000" font-family="Microsoft YaHei" font-size="13" lengthAdjust="spacing" textLength="8.271" x="646.1072" y="388.7526">1</text><text fill="#000000" font-family="Microsoft YaHei" font-size="13" lengthAdjust="spacing" textLength="8.271" x="807.6027" y="462.4962">1</text></g><!--link Credit to Shop--><g class="link" data-entity-1="ent0006" data-entity-2="ent0007" data-link-type="dependency" data-source-line="140" id="lnk21"><path codeLine="140" d="M922.52,619.7469 C926.23,647.0369 929.6136,671.9213 933.2036,698.3913" fill="none" id="Credit-to-Shop" style="stroke:#181818;stroke-width:1;"/><polygon fill="#181818" points="934.01,704.3369,936.7642,694.8809,933.338,699.3822,928.8367,695.9561,934.01,704.3369" style="stroke:#181818;stroke-width:1;"/><text fill="#000000" font-family="Microsoft YaHei" font-size="13" lengthAdjust="spacing" textLength="52.0001" x="928.7" y="662.4138">&#20817;&#25442;&#25187;&#20943;</text></g><!--link User to Registration--><g class="link" data-entity-1="ent0002" data-entity-2="ent0009" data-link-type="dependency" data-source-line="141" id="lnk22"><path codeLine="141" d="M638.56,386.3169 C644.14,390.0969 649.88,393.5669 655.7,396.5669 C710.34,424.7069 730.72,413.1069 790.7,426.5669 C824.05,434.0469 832.22,436.6569 865.7,443.5669 C936.98,458.2769 959.09,446.5969 1026.7,473.5669 C1032.45,475.8569 1032.8504,475.8199 1038.5804,478.6499" fill="none" id="User-to-Registration" style="stroke:#181818;stroke-width:1;"/><polygon fill="#181818" points="1043.96,481.3069,1037.6618,473.735,1039.477,479.0927,1034.1192,480.9079,1043.96,481.3069" style="stroke:#181818;stroke-width:1;"/><text fill="#000000" font-family="Microsoft YaHei" font-size="13" lengthAdjust="spacing" textLength="8.271" x="646.3976" y="406.4642">1</text><text fill="#000000" font-family="Microsoft YaHei" font-size="13" lengthAdjust="spacing" textLength="6.5" x="1029.0653" y="471.6823">*</text></g><!--link Activity to Registration--><g class="link" data-entity-1="ent0008" data-entity-2="ent0009" data-link-type="dependency" data-source-line="142" id="lnk23"><path codeLine="142" d="M1019.88,388.6469 C1042.24,418.3969 1064.3265,447.7895 1085.9965,476.6395" fill="none" id="Activity-to-Registration" style="stroke:#181818;stroke-width:1;"/><polygon fill="#181818" points="1089.6,481.4369,1087.3931,471.8385,1086.5971,477.439,1080.9965,476.6431,1089.6,481.4369" style="stroke:#181818;stroke-width:1;"/><text fill="#000000" font-family="Microsoft YaHei" font-size="13" lengthAdjust="spacing" textLength="8.271" x="1016.6756" y="408.4041">1</text><text fill="#000000" font-family="Microsoft YaHei" font-size="13" lengthAdjust="spacing" textLength="6.5" x="1078.0388" y="470.5789">*</text></g><!--link Asset to Borrow--><g class="link" data-entity-1="ent0010" data-entity-2="ent0011" data-link-type="dependency" data-source-line="143" id="lnk24"><path codeLine="143" d="M133.84,396.9169 C128.03,424.6169 122.8401,449.3743 117.3501,475.5843" fill="none" id="Asset-to-Borrow" style="stroke:#181818;stroke-width:1;"/><polygon fill="#181818" points="116.12,481.4569,121.8802,473.4681,117.1451,476.5631,114.0501,471.828,116.12,481.4569" style="stroke:#181818;stroke-width:1;"/><text fill="#000000" font-family="Microsoft YaHei" font-size="13" lengthAdjust="spacing" textLength="8.271" x="124.0592" y="416.6285">1</text><text fill="#000000" font-family="Microsoft YaHei" font-size="13" lengthAdjust="spacing" textLength="6.5" x="111.2874" y="470.6011">*</text></g><!--link User to Borrow--><g class="link" data-entity-1="ent0002" data-entity-2="ent0011" data-link-type="dependency" data-source-line="144" id="lnk25"><path codeLine="144" d="M494.86,376.3569 C484.13,383.7769 472.89,390.7769 461.7,396.5669 C359.94,449.1969 319.59,425.2869 215.7,473.5669 C210.11,476.1569 209.7691,476.1726 204.1391,479.1626" fill="none" id="User-to-Borrow" style="stroke:#181818;stroke-width:1;"/><polygon fill="#181818" points="198.84,481.9769,208.6648,481.2882,203.2559,479.6317,204.9124,474.2228,198.84,481.9769" style="stroke:#181818;stroke-width:1;"/><text fill="#000000" font-family="Microsoft YaHei" font-size="13" lengthAdjust="spacing" textLength="39" x="384.7" y="439.6338">&#20511;&#38405;&#20154;</text><text fill="#000000" font-family="Microsoft YaHei" font-size="13" lengthAdjust="spacing" textLength="8.271" x="479.0535" y="378.9302">1</text><text fill="#000000" font-family="Microsoft YaHei" font-size="13" lengthAdjust="spacing" textLength="6.5" x="203.6386" y="470.7285">*</text></g><!--link Admin to Asset--><g class="link" data-entity-1="ent0003" data-entity-2="ent0010" data-link-type="dependency" data-source-line="145" id="lnk26"><path codeLine="145" d="M630.49,115.0969 C537.73,133.1769 378.09,170.8769 253.7,234.4869 C245.83,238.5069 242.9963,239.8803 235.3263,244.8803" fill="none" id="Admin-to-Asset" style="stroke:#181818;stroke-width:1;"/><polygon fill="#181818" points="230.3,248.1569,240.0239,246.5928,234.4886,245.4264,235.6551,239.8911,230.3,248.1569" style="stroke:#181818;stroke-width:1;"/><text fill="#000000" font-family="Microsoft YaHei" font-size="13" lengthAdjust="spacing" textLength="52.0001" x="361.7" y="200.5538">&#32500;&#25252;&#24211;&#23384;</text></g><!--link Admin to Puzzle--><g class="link" data-entity-1="ent0003" data-entity-2="ent0004" data-link-type="dependency" data-source-line="146" id="lnk27"><path codeLine="146" d="M630.43,144.4469 C585.55,169.8869 527.92,203.2369 477.7,234.4869 C466.75,241.2969 460.3724,245.3242 449.1424,252.6642" fill="none" id="Admin-to-Puzzle" style="stroke:#181818;stroke-width:1;"/><polygon fill="#181818" points="444.12,255.9469,453.842,254.3711,448.3053,253.2113,449.4651,247.6746,444.12,255.9469" style="stroke:#181818;stroke-width:1;"/><text fill="#000000" font-family="Microsoft YaHei" font-size="13" lengthAdjust="spacing" textLength="52.0001" x="553.7" y="200.5538">&#32500;&#25252;&#35868;&#39064;</text></g><!--link Admin to Dud--><g class="link" data-entity-1="ent0003" data-entity-2="ent0012" data-link-type="dependency" data-source-line="147" id="lnk28"><path codeLine="147" d="M722.99,157.7569 C731.27,186.1869 739.7113,215.1065 748.3113,244.6165" fill="none" id="Admin-to-Dud" style="stroke:#181818;stroke-width:1;"/><polygon fill="#181818" points="749.99,250.3769,751.3122,240.6172,748.5911,245.5766,743.6317,242.8555,749.99,250.3769" style="stroke:#181818;stroke-width:1;"/><text fill="#000000" font-family="Microsoft YaHei" font-size="13" lengthAdjust="spacing" textLength="52.0001" x="737.7" y="200.5538">&#32500;&#25252;&#35268;&#21017;</text></g><!--link User to Card--><g class="link" data-entity-1="ent0002" data-entity-2="ent0013" data-link-type="dependency" data-source-line="148" id="lnk29"><path codeLine="148" d="M563.86,388.6469 C562.69,418.3969 561.5869,446.5916 560.4469,475.4416" fill="none" id="User-to-Card" style="stroke:#181818;stroke-width:1;"/><polygon fill="#181818" points="560.21,481.4369,564.5622,472.6018,560.4074,476.4408,556.5685,472.286,560.21,481.4369" style="stroke:#181818;stroke-width:1;"/><text fill="#000000" font-family="Microsoft YaHei" font-size="13" lengthAdjust="spacing" textLength="26" x="563.7" y="439.6338">&#25317;&#26377;</text></g><!--link User to Post--><g class="link" data-entity-1="ent0002" data-entity-2="ent0014" data-link-type="dependency" data-source-line="149" id="lnk30"><path codeLine="149" d="M624.17,388.8469 C641.89,414.3469 659.84,444.0469 671.7,473.5669 C700.79,545.9869 713.0975,628.9324 718.7475,690.0324" fill="none" id="User-to-Post" style="stroke:#181818;stroke-width:1;"/><polygon fill="#181818" points="719.3,696.0069,722.4543,686.6768,718.8396,691.0281,714.4883,687.4134,719.3,696.0069" style="stroke:#181818;stroke-width:1;"/><text fill="#000000" font-family="Microsoft YaHei" font-size="13" lengthAdjust="spacing" textLength="56.3799" x="710.7" y="551.0238">&#21457;&#24067;/&#25509;&#25910;</text></g><!--link Credit to Post--><g class="link" data-entity-1="ent0006" data-entity-2="ent0014" data-link-type="dependency" data-source-line="150" id="lnk31"><path codeLine="150" d="M850.81,619.7469 C829.82,644.2669 810.2826,667.0995 789.3026,691.5995" fill="none" id="Credit-to-Post" style="stroke:#181818;stroke-width:1;"/><polygon fill="#181818" points="785.4,696.1569,794.2922,691.9225,788.6522,692.3591,788.2157,686.7191,785.4,696.1569" style="stroke:#181818;stroke-width:1;"/><text fill="#000000" font-family="Microsoft YaHei" font-size="13" lengthAdjust="spacing" textLength="52.0001" x="824.7" y="662.4138">&#31215;&#20998;&#25253;&#37228;</text></g><!--link User to Feedback--><g class="link" data-entity-1="ent0002" data-entity-2="ent0015" data-link-type="dependency" data-source-line="151" id="lnk32"><path codeLine="151" d="M638.53,387.0969 C644.1,390.6669 649.84,393.8769 655.7,396.5669 C685.93,410.4569 1218.66,461.5569 1249.7,473.5669 C1255.49,475.8069 1255.9381,475.7049 1261.6281,478.6149" fill="none" id="User-to-Feedback" style="stroke:#181818;stroke-width:1;"/><polygon fill="#181818" points="1266.97,481.3469,1260.7784,473.6876,1262.5184,479.0702,1257.1358,480.8102,1266.97,481.3469" style="stroke:#181818;stroke-width:1;"/><text fill="#000000" font-family="Microsoft YaHei" font-size="13" lengthAdjust="spacing" textLength="26" x="1019.7" y="439.6338">&#25552;&#20132;</text></g><!--link Admin to Feedback--><g class="link" data-entity-1="ent0003" data-entity-2="ent0015" data-link-type="dependency" data-source-line="152" id="lnk33"><path codeLine="152" d="M783.05,108.4769 C927,122.4969 1230.39,160.2769 1300.7,234.4869 C1363.1,300.3469 1366.9479,405.3044 1361.5879,475.3344" fill="none" id="Admin-to-Feedback" style="stroke:#181818;stroke-width:1;"/><polygon fill="#181818" points="1361.13,481.3169,1365.8052,472.6484,1361.5116,476.3315,1357.8285,472.0379,1361.13,481.3169" style="stroke:#181818;stroke-width:1;"/><text fill="#000000" font-family="Microsoft YaHei" font-size="13" lengthAdjust="spacing" textLength="26" x="1361.7" y="320.0938">&#22788;&#29702;</text></g><!--link Admin to Recommendation--><g class="link" data-entity-1="ent0003" data-entity-2="ent0016" data-link-type="dependency" data-source-line="153" id="lnk34"><path codeLine="153" d="M782.84,126.3969 C853.62,150.3169 961.15,189.5969 1049.7,234.4869 C1055.21,237.2869 1055.5428,237.347 1061.1328,240.447" fill="none" id="Admin-to-Recommendation" style="stroke:#181818;stroke-width:1;"/><polygon fill="#181818" points="1066.38,243.3569,1060.4492,235.494,1062.0074,240.932,1056.5694,242.4902,1066.38,243.3569" style="stroke:#181818;stroke-width:1;"/><text fill="#000000" font-family="Microsoft YaHei" font-size="13" lengthAdjust="spacing" textLength="26" x="986.7" y="200.5538">&#21457;&#24067;</text></g><?plantuml-src TLPRRnGt57xVNs6bBxqeedshze5gIK14AYLAmaCVlJDdTwsTiQUs9yj2AxKb2LbGRYAe86XHQMv89O0AjCsgy6VYsSs_gCVsJcPcoKisSuvz_Faxvtp7aiW046qdwmTgRUFutLwo_dHm-FjWSsNmLt_GVu8cKRBtith_Pl2ghnwzgqWM8SbGdKd9GkGJ3fuaZ5P4cz08SnoYElRQJSvYwa-nW77qKUFB1cvukHK-D70So4kCoczm2EWAyJWJh27Hj_WoaDnAqS8-wn3QH0qS2CXvl00BKPEIateiOSPZT9xS0FHvfM8yQEAQ08u6smV9wjyJ20jalczM4FeCiGZeZ5z5ytetRHeJ9LwRQYm58sU1Dipfl-RJms4KYyAAW3K9_VWJytyS-LZ2B6SD4e2s_P11gVaXeSYoghOU63ZMPl5qMaH2G8IieWjCduQfCKV0GoA4PbSV-hLsMnGjyDgpcSiTZcEVoAjw1vRMU7hwD2P1TpQ-SKFdENcnaVooEtpv-EIfXU7i5eTCQw5mFnR9ql6OYWxmmg8ehclmhPg6FwqPM22XvOk8sg8-6zSD7HdscebG9CYOvi1Zt4U3vziQtV3mfVhllgNAU1t6MAUnbBl8tA5a513eoeIYKSTFwxL8Cr0HSxXAFT2iJkEkmyfX4N1GepZe2Y8ASASuQBPhdgUBNAB1_WkrkZ9ylJUgDEiUSSea3gobYcQe9H6kUorCcv1IK_PnJDkdNzZtROhiCeTDwaMYOKXCFttmOq-t4x_euXRGphTOD2CXH6fvArbxgkwlg7i_6Q2fny4ShttuBjRDxPVX2ScyzlXDCYGU1onWFbrLJB6MYKKYkoXvtLTt3cnYHxQpoa-I55MXg0BccH8lvXL7sDE1Jd5vcCv1KnTjHfAsJ66TvA00oowoNOEIExjgSorNUGNlcVM7tJNA5IYnBCa57uEayLo01kCm3TWF22q9Xn0WJUu6lMV3DqkMjTHuLjeqET1al5ioZWdN29m9Dcy-x5sYAEXUq6t2EWvaY7dR6i3FMaF6d2wmyIpRXQwHrOzFJXuiv-YqNWUzRcEEaMckFCuaLDts52paw9kX2satPBsX9q63y307EPzjVRkvM0lUTEohHx-fdRNX_f9QVMZWQPl3rePkHzyWhtiXbbxh2lCrZeiq3XqFEjm2N9S5j7Ob286pjh2Z8JsugCmWq-cv25DOqsLdhox0GU-srP7KUcRLrGahaTGjTK_Qk6aC1sAHGCTzvgICXMwGp38XqV7HtUF-MxM_dVJSV4YjD_CoFmQ4GqT7pIl4MDrZpuD8PjKZMB2OAKRQO6Q6pvau1NIN0FpqEO7Knjh9tghg7mqF3mskp7FJZJ_POZbWNurAGG8jPWTJHhiXIm7cXu28ws5MGcd9NyRK3yRAnzDq0VMTNAmV3DSsrSgoElpNoKN1VwQgTQEorhfzfS6QIYcZrtZmeN6Rowgk8prdBLJxhfYS_FwyVV5KqQ2_d_JUdqjwpzIh-ycljquURbQCQ-AB2RtmF9huTCBDs8fx3dp0KzoXV-rWgBXXbrhDEAcwCPFq_b2tDyOFoajg9Hi0PwymOfTtsyOU3-p4fUfav_ZeAEFYlDFCb8lNoPqTTNHFFN-GSxjhZ_psVPJpfygGEOrWsFDJd-dIAahkxYQFUwTcqpWQpCQM-kVMkMHzDzb-coVB-UtZGG-Ua-K_JpTdrQtZRcmU7-taiEHyQcT9loXplb81Zex_7m00?></g></svg>