<svg xmlns="http://www.w3.org/2000/svg" xmlns:xlink="http://www.w3.org/1999/xlink" contentStyleType="text/css" data-diagram-type="ACTIVITY" height="814px" preserveAspectRatio="none" style="width:319px;height:814px;background:#F8FAFC;" version="1.1" viewBox="0 0 319 814" width="319px" zoomAndPan="magnify"><?plantuml 1.2026.3beta6?><defs/><g><rect fill="#F8FAFC" height="814" style="stroke:none;stroke-width:1;" width="319" x="0" y="0"/><g class="title" data-source-line="1"><text fill="#000000" font-family="Microsoft YaHei" font-size="14" font-weight="700" lengthAdjust="spacing" textLength="125.9995" x="95.501" y="32.9951">&#27599;&#26085;&#35868;&#39064;&#31572;&#39064;&#27963;&#21160;&#22270;</text></g><ellipse cx="154.0008" cy="62.2969" fill="#222222" rx="10" ry="10" style="stroke:#222222;stroke-width:1;"/><rect fill="#F1F1F1" height="33.9688" rx="12.5" ry="12.5" style="stroke:#181818;stroke-width:0.5;" width="116.0007" x="96.0005" y="92.2969"/><text fill="#000000" font-family="Microsoft YaHei" font-size="12" lengthAdjust="spacing" textLength="96.0007" x="106.0005" y="113.4355">&#36827;&#20837;&#27599;&#26085;&#35868;&#39064;&#39029;&#38754;</text><rect fill="#F1F1F1" height="33.9688" rx="12.5" ry="12.5" style="stroke:#181818;stroke-width:0.5;" width="116.0007" x="96.0005" y="146.2656"/><text fill="#000000" font-family="Microsoft YaHei" font-size="12" lengthAdjust="spacing" textLength="96.0007" x="106.0005" y="167.4043">&#26816;&#26597;&#24494;&#20449;&#30331;&#24405;&#29366;&#24577;</text><rect fill="#F1F1F1" height="33.9688" rx="12.5" ry="12.5" style="stroke:#181818;stroke-width:0.5;" width="92.0005" x="108.0005" y="248.6367"/><text fill="#000000" font-family="Microsoft YaHei" font-size="12" lengthAdjust="spacing" textLength="72.0005" x="118.0005" y="269.7754">&#36339;&#36716;&#25480;&#26435;&#30331;&#24405;</text><polygon fill="#F1F1F1" points="121.0011,200.2344,187.0006,200.2344,199.0006,212.2344,187.0006,224.2344,121.0011,224.2344,109.0011,212.2344,121.0011,200.2344" style="stroke:#181818;stroke-width:0.5;"/><text fill="#000000" font-family="Microsoft YaHei" font-size="11" lengthAdjust="spacing" textLength="10.9999" x="158.0008" y="234.4448">&#21542;</text><text fill="#000000" font-family="Microsoft YaHei" font-size="11" lengthAdjust="spacing" textLength="65.9995" x="121.0011" y="216.0425">&#26159;&#21542;&#24050;&#30331;&#24405;&#65311;</text><text fill="#000000" font-family="Microsoft YaHei" font-size="11" lengthAdjust="spacing" textLength="10.9999" x="199.0006" y="209.6401">&#26159;</text><polygon fill="#F1F1F1" points="154.0008,302.6055,166.0008,314.6055,154.0008,326.6055,142.0008,314.6055,154.0008,302.6055" style="stroke:#181818;stroke-width:0.5;"/><rect fill="#F1F1F1" height="33.9688" rx="12.5" ry="12.5" style="stroke:#181818;stroke-width:0.5;" width="92.0005" x="108.0005" y="346.6055"/><text fill="#000000" font-family="Microsoft YaHei" font-size="12" lengthAdjust="spacing" textLength="72.0005" x="118.0005" y="367.7441">&#21152;&#36733;&#20170;&#26085;&#35868;&#39064;</text><polygon fill="#F1F1F1" points="115.5011,400.5742,192.5006,400.5742,204.5006,412.5742,192.5006,424.5742,115.5011,424.5742,103.5011,412.5742,115.5011,400.5742" style="stroke:#181818;stroke-width:0.5;"/><text fill="#000000" font-family="Microsoft YaHei" font-size="11" lengthAdjust="spacing" textLength="76.9995" x="115.5011" y="416.3823">&#20170;&#26085;&#26159;&#21542;&#24050;&#31572;&#65311;</text><text fill="#000000" font-family="Microsoft YaHei" font-size="11" lengthAdjust="spacing" textLength="10.9999" x="92.5012" y="409.98">&#26159;</text><text fill="#000000" font-family="Microsoft YaHei" font-size="11" lengthAdjust="spacing" textLength="10.9999" x="204.5006" y="409.98">&#21542;</text><rect fill="#F1F1F1" height="33.9688" rx="12.5" ry="12.5" style="stroke:#181818;stroke-width:0.5;" width="128.0008" x="16" y="434.5742"/><text fill="#000000" font-family="Microsoft YaHei" font-size="12" lengthAdjust="spacing" textLength="108.0008" x="26" y="455.7129">&#23637;&#31034;&#21382;&#21490;&#32467;&#26524;&#19982;&#35299;&#26512;</text><rect fill="#F1F1F1" height="33.9688" rx="12.5" ry="12.5" style="stroke:#181818;stroke-width:0.5;" width="104.0006" x="176.0009" y="434.5742"/><text fill="#000000" font-family="Microsoft YaHei" font-size="12" lengthAdjust="spacing" textLength="84.0006" x="186.0009" y="455.7129">&#25552;&#20132;&#36873;&#39033;&#24182;&#26657;&#39564;</text><rect fill="#F1F1F1" height="33.9688" rx="12.5" ry="12.5" style="stroke:#181818;stroke-width:0.5;" width="92.0005" x="182.001" y="536.9453"/><text fill="#000000" font-family="Microsoft YaHei" font-size="12" lengthAdjust="spacing" textLength="72.0005" x="192.001" y="558.084">&#22686;&#21152;&#20010;&#20154;&#31215;&#20998;</text><polygon fill="#F1F1F1" points="200.5014,488.543,255.501,488.543,267.501,500.543,255.501,512.543,200.5014,512.543,188.5014,500.543,200.5014,488.543" style="stroke:#181818;stroke-width:0.5;"/><text fill="#000000" font-family="Microsoft YaHei" font-size="11" lengthAdjust="spacing" textLength="10.9999" x="232.0012" y="522.7534">&#26159;</text><text fill="#000000" font-family="Microsoft YaHei" font-size="11" lengthAdjust="spacing" textLength="54.9996" x="200.5014" y="504.3511">&#26159;&#21542;&#31572;&#23545;&#65311;</text><text fill="#000000" font-family="Microsoft YaHei" font-size="11" lengthAdjust="spacing" textLength="10.9999" x="267.501" y="497.9487">&#21542;</text><polygon fill="#F1F1F1" points="228.0012,590.9141,240.0012,602.9141,228.0012,614.9141,216.0012,602.9141,228.0012,590.9141" style="stroke:#181818;stroke-width:0.5;"/><rect fill="#F1F1F1" height="33.9688" rx="12.5" ry="12.5" style="stroke:#181818;stroke-width:0.5;" width="128.0008" x="164.0008" y="634.9141"/><text fill="#000000" font-family="Microsoft YaHei" font-size="12" lengthAdjust="spacing" textLength="108.0008" x="174.0008" y="656.0527">&#26174;&#31034;&#27491;&#30830;&#31572;&#26696;&#21644;&#35299;&#26512;</text><rect fill="#F1F1F1" height="33.9688" rx="12.5" ry="12.5" style="stroke:#181818;stroke-width:0.5;" width="92.0005" x="182.001" y="688.8828"/><text fill="#000000" font-family="Microsoft YaHei" font-size="12" lengthAdjust="spacing" textLength="72.0005" x="192.001" y="710.0215">&#20889;&#20837;&#31572;&#39064;&#35760;&#24405;</text><polygon fill="#F1F1F1" points="154.0008,728.8516,166.0008,740.8516,154.0008,752.8516,142.0008,740.8516,154.0008,728.8516" style="stroke:#181818;stroke-width:0.5;"/><ellipse cx="154.0008" cy="783.8516" fill="none" rx="11" ry="11" style="stroke:#222222;stroke-width:1;"/><ellipse cx="154.0008" cy="783.8516" fill="#222222" rx="6" ry="6" style="stroke:#222222;stroke-width:1;"/><line style="stroke:#181818;stroke-width:1;" x1="154.0008" x2="154.0008" y1="72.2969" y2="92.2969"/><polygon fill="#181818" points="150.0008,82.2969,154.0008,92.2969,158.0008,82.2969,154.0008,86.2969" style="stroke:#181818;stroke-width:1;"/><line style="stroke:#181818;stroke-width:1;" x1="154.0008" x2="154.0008" y1="126.2656" y2="146.2656"/><polygon fill="#181818" points="150.0008,136.2656,154.0008,146.2656,158.0008,136.2656,154.0008,140.2656" style="stroke:#181818;stroke-width:1;"/><line style="stroke:#181818;stroke-width:1;" x1="154.0008" x2="154.0008" y1="224.2344" y2="248.6367"/><polygon fill="#181818" points="150.0008,238.6367,154.0008,248.6367,158.0008,238.6367,154.0008,242.6367" style="stroke:#181818;stroke-width:1;"/><line style="stroke:#181818;stroke-width:1;" x1="199.0006" x2="211.0006" y1="212.2344" y2="212.2344"/><polygon fill="#181818" points="207.0006,255.6211,211.0006,265.6211,215.0006,255.6211,211.0006,259.6211" style="stroke:#181818;stroke-width:1;"/><line style="stroke:#181818;stroke-width:1;" x1="211.0006" x2="211.0006" y1="212.2344" y2="314.6055"/><line style="stroke:#181818;stroke-width:1;" x1="211.0006" x2="166.0008" y1="314.6055" y2="314.6055"/><polygon fill="#181818" points="176.0008,310.6055,166.0008,314.6055,176.0008,318.6055,172.0008,314.6055" style="stroke:#181818;stroke-width:1;"/><line style="stroke:#181818;stroke-width:1;" x1="154.0008" x2="154.0008" y1="282.6055" y2="302.6055"/><polygon fill="#181818" points="150.0008,292.6055,154.0008,302.6055,158.0008,292.6055,154.0008,296.6055" style="stroke:#181818;stroke-width:1;"/><line style="stroke:#181818;stroke-width:1;" x1="154.0008" x2="154.0008" y1="180.2344" y2="200.2344"/><polygon fill="#181818" points="150.0008,190.2344,154.0008,200.2344,158.0008,190.2344,154.0008,194.2344" style="stroke:#181818;stroke-width:1;"/><line style="stroke:#181818;stroke-width:1;" x1="154.0008" x2="154.0008" y1="326.6055" y2="346.6055"/><polygon fill="#181818" points="150.0008,336.6055,154.0008,346.6055,158.0008,336.6055,154.0008,340.6055" style="stroke:#181818;stroke-width:1;"/><line style="stroke:#181818;stroke-width:1;" x1="228.0012" x2="228.0012" y1="512.543" y2="536.9453"/><polygon fill="#181818" points="224.0012,526.9453,228.0012,536.9453,232.0012,526.9453,228.0012,530.9453" style="stroke:#181818;stroke-width:1;"/><line style="stroke:#181818;stroke-width:1;" x1="267.501" x2="284.0015" y1="500.543" y2="500.543"/><polygon fill="#181818" points="280.0015,543.9297,284.0015,553.9297,288.0015,543.9297,284.0015,547.9297" style="stroke:#181818;stroke-width:1;"/><line style="stroke:#181818;stroke-width:1;" x1="284.0015" x2="284.0015" y1="500.543" y2="602.9141"/><line style="stroke:#181818;stroke-width:1;" x1="284.0015" x2="240.0012" y1="602.9141" y2="602.9141"/><polygon fill="#181818" points="250.0012,598.9141,240.0012,602.9141,250.0012,606.9141,246.0012,602.9141" style="stroke:#181818;stroke-width:1;"/><line style="stroke:#181818;stroke-width:1;" x1="228.0012" x2="228.0012" y1="570.9141" y2="590.9141"/><polygon fill="#181818" points="224.0012,580.9141,228.0012,590.9141,232.0012,580.9141,228.0012,584.9141" style="stroke:#181818;stroke-width:1;"/><line style="stroke:#181818;stroke-width:1;" x1="228.0012" x2="228.0012" y1="468.543" y2="488.543"/><polygon fill="#181818" points="224.0012,478.543,228.0012,488.543,232.0012,478.543,228.0012,482.543" style="stroke:#181818;stroke-width:1;"/><line style="stroke:#181818;stroke-width:1;" x1="228.0012" x2="228.0012" y1="614.9141" y2="634.9141"/><polygon fill="#181818" points="224.0012,624.9141,228.0012,634.9141,232.0012,624.9141,228.0012,628.9141" style="stroke:#181818;stroke-width:1;"/><line style="stroke:#181818;stroke-width:1;" x1="228.0012" x2="228.0012" y1="668.8828" y2="688.8828"/><polygon fill="#181818" points="224.0012,678.8828,228.0012,688.8828,232.0012,678.8828,228.0012,682.8828" style="stroke:#181818;stroke-width:1;"/><line style="stroke:#181818;stroke-width:1;" x1="103.5011" x2="80.0004" y1="412.5742" y2="412.5742"/><line style="stroke:#181818;stroke-width:1;" x1="80.0004" x2="80.0004" y1="412.5742" y2="434.5742"/><polygon fill="#181818" points="76.0004,424.5742,80.0004,434.5742,84.0004,424.5742,80.0004,428.5742" style="stroke:#181818;stroke-width:1;"/><line style="stroke:#181818;stroke-width:1;" x1="204.5006" x2="228.0012" y1="412.5742" y2="412.5742"/><line style="stroke:#181818;stroke-width:1;" x1="228.0012" x2="228.0012" y1="412.5742" y2="434.5742"/><polygon fill="#181818" points="224.0012,424.5742,228.0012,434.5742,232.0012,424.5742,228.0012,428.5742" style="stroke:#181818;stroke-width:1;"/><line style="stroke:#181818;stroke-width:1;" x1="80.0004" x2="80.0004" y1="468.543" y2="740.8516"/><line style="stroke:#181818;stroke-width:1;" x1="80.0004" x2="142.0008" y1="740.8516" y2="740.8516"/><polygon fill="#181818" points="132.0008,736.8516,142.0008,740.8516,132.0008,744.8516,136.0008,740.8516" style="stroke:#181818;stroke-width:1;"/><line style="stroke:#181818;stroke-width:1;" x1="228.0012" x2="228.0012" y1="722.8516" y2="740.8516"/><line style="stroke:#181818;stroke-width:1;" x1="228.0012" x2="166.0008" y1="740.8516" y2="740.8516"/><polygon fill="#181818" points="176.0008,736.8516,166.0008,740.8516,176.0008,744.8516,172.0008,740.8516" style="stroke:#181818;stroke-width:1;"/><line style="stroke:#181818;stroke-width:1;" x1="154.0008" x2="154.0008" y1="380.5742" y2="400.5742"/><polygon fill="#181818" points="150.0008,390.5742,154.0008,400.5742,158.0008,390.5742,154.0008,394.5742" style="stroke:#181818;stroke-width:1;"/><line style="stroke:#181818;stroke-width:1;" x1="154.0008" x2="154.0008" y1="752.8516" y2="772.8516"/><polygon fill="#181818" points="150.0008,762.8516,154.0008,772.8516,158.0008,762.8516,154.0008,766.8516" style="stroke:#181818;stroke-width:1;"/><?plantuml-src PP7BJi9058RtynIJk84tCB0qCMvqxtA45XgW9UqGjnWZmOO0KOWGhkKYXWX5L2v5u6KwqtRbApZG81WtipZdF__tdpDOm54EKZr7dxhsgEgqIjQWm5xwiI3g2wciW18Hn3YIKGnUeK0a94i9CNWYHIKP7l77FE831ueWnwD459zA8hv0CGwU2m5PKYGUmqjqnWa7IYMCWjAr88OWZw8A1u22aOo1prvNo5ttC8-ZVJgrbX_uQ3j96rso6ffhpIeloB9egHEQlF43WOSUMj99_fbCnsxh-wlXXJZCYT33obu0eS-UljlBLvfDqzgjA_83Zh6tirx0YK611pwYDktbqboelm5SVxUofmmA1uYj0KEGjwBLCKWsHN9ZQ_58wrLpbhLxRLhFxrYxD3INDusEaxntj3cPJsXJS_ePF-libs4Cei__OpQWLfq5DMTzqp2idaxIgSte7uAxpuPKMh5GTD2sj26pf5gQF6HseJPUgJ8xkVljzd3atcKxh60f_WC0?></g></svg>