<svg xmlns="http://www.w3.org/2000/svg" xmlns:xlink="http://www.w3.org/1999/xlink" contentStyleType="text/css" data-diagram-type="ACTIVITY" height="588px" preserveAspectRatio="none" style="width:274px;height:588px;background:#F8FAFC;" version="1.1" viewBox="0 0 274 588" width="274px" zoomAndPan="magnify"><?plantuml 1.2026.3beta6?><defs/><g><rect fill="#F8FAFC" height="588" style="stroke:none;stroke-width:1;" width="274" x="0" y="0"/><g class="title" data-source-line="1"><text fill="#000000" font-family="Microsoft YaHei" font-size="14" font-weight="700" lengthAdjust="spacing" textLength="131.1127" x="70.4544" y="32.9951">&#20107;&#20214;&#22996;&#25176;/&#35843;&#26597;&#27963;&#21160;&#22270;</text></g><ellipse cx="128" cy="62.2969" fill="#222222" rx="10" ry="10" style="stroke:#222222;stroke-width:1;"/><rect fill="#F1F1F1" height="33.9688" rx="12.5" ry="12.5" style="stroke:#181818;stroke-width:0.5;" width="116.0007" x="69.9996" y="92.2969"/><text fill="#000000" font-family="Microsoft YaHei" font-size="12" lengthAdjust="spacing" textLength="96.0007" x="79.9996" y="113.4355">&#21457;&#24086;&#20154;&#21019;&#24314;&#27714;&#21161;&#36148;</text><rect fill="#F1F1F1" height="33.9688" rx="12.5" ry="12.5" style="stroke:#181818;stroke-width:0.5;" width="92.0005" x="81.9997" y="146.2656"/><text fill="#000000" font-family="Microsoft YaHei" font-size="12" lengthAdjust="spacing" textLength="72.0005" x="91.9997" y="167.4043">&#35774;&#32622;&#31215;&#20998;&#25253;&#37228;</text><polygon fill="#F1F1F1" points="84.0003,200.2344,171.9997,200.2344,183.9997,212.2344,171.9997,224.2344,84.0003,224.2344,72.0003,212.2344,84.0003,200.2344" style="stroke:#181818;stroke-width:0.5;"/><text fill="#000000" font-family="Microsoft YaHei" font-size="11" lengthAdjust="spacing" textLength="87.9994" x="84.0003" y="216.0425">&#21487;&#20817;&#25442;&#31215;&#20998;&#36275;&#22815;&#65311;</text><text fill="#000000" font-family="Microsoft YaHei" font-size="11" lengthAdjust="spacing" textLength="10.9999" x="61.0004" y="209.6401">&#21542;</text><text fill="#000000" font-family="Microsoft YaHei" font-size="11" lengthAdjust="spacing" textLength="10.9999" x="183.9997" y="209.6401">&#26159;</text><rect fill="#F1F1F1" height="33.9688" rx="12.5" ry="12.5" style="stroke:#181818;stroke-width:0.5;" width="92.0005" x="16" y="234.2344"/><text fill="#000000" font-family="Microsoft YaHei" font-size="12" lengthAdjust="spacing" textLength="72.0005" x="26" y="255.373">&#25552;&#31034;&#31215;&#20998;&#19981;&#36275;</text><ellipse cx="62.0003" cy="299.2031" fill="none" rx="11" ry="11" style="stroke:#222222;stroke-width:1;"/><ellipse cx="62.0003" cy="299.2031" fill="#222222" rx="6" ry="6" style="stroke:#222222;stroke-width:1;"/><rect fill="#F1F1F1" height="33.9688" rx="12.5" ry="12.5" style="stroke:#181818;stroke-width:0.5;" width="120.0437" x="133.9778" y="234.2344"/><text fill="#000000" font-family="Microsoft YaHei" font-size="12" lengthAdjust="spacing" textLength="100.0437" x="143.9778" y="255.373">&#20923;&#32467;/&#39044;&#25187;&#25253;&#37228;&#31215;&#20998;</text><rect fill="#F1F1F1" height="33.9688" rx="12.5" ry="12.5" style="stroke:#181818;stroke-width:0.5;" width="116.0007" x="69.9996" y="330.2031"/><text fill="#000000" font-family="Microsoft YaHei" font-size="12" lengthAdjust="spacing" textLength="96.0007" x="79.9996" y="351.3418">&#20854;&#20182;&#20390;&#25506;&#25509;&#25910;&#22996;&#25176;</text><rect fill="#F1F1F1" height="33.9688" rx="12.5" ry="12.5" style="stroke:#181818;stroke-width:0.5;" width="104.0006" x="75.9996" y="384.1719"/><text fill="#000000" font-family="Microsoft YaHei" font-size="12" lengthAdjust="spacing" textLength="84.0006" x="85.9996" y="405.3105">&#21457;&#24086;&#20154;&#30830;&#35748;&#35299;&#20915;</text><rect fill="#F1F1F1" height="33.9688" rx="12.5" ry="12.5" style="stroke:#181818;stroke-width:0.5;" width="116.0007" x="69.9996" y="438.1406"/><text fill="#000000" font-family="Microsoft YaHei" font-size="12" lengthAdjust="spacing" textLength="96.0007" x="79.9996" y="459.2793">&#21521;&#25509;&#25910;&#32773;&#20998;&#37197;&#31215;&#20998;</text><rect fill="#F1F1F1" height="33.9688" rx="12.5" ry="12.5" style="stroke:#181818;stroke-width:0.5;" width="92.0005" x="81.9997" y="492.1094"/><text fill="#000000" font-family="Microsoft YaHei" font-size="12" lengthAdjust="spacing" textLength="72.0005" x="91.9997" y="513.248">&#35760;&#24405;&#20132;&#26131;&#21382;&#21490;</text><ellipse cx="128" cy="557.0781" fill="none" rx="11" ry="11" style="stroke:#222222;stroke-width:1;"/><ellipse cx="128" cy="557.0781" fill="#222222" rx="6" ry="6" style="stroke:#222222;stroke-width:1;"/><line style="stroke:#181818;stroke-width:1;" x1="128" x2="128" y1="72.2969" y2="92.2969"/><polygon fill="#181818" points="124,82.2969,128,92.2969,132,82.2969,128,86.2969" style="stroke:#181818;stroke-width:1;"/><line style="stroke:#181818;stroke-width:1;" x1="128" x2="128" y1="126.2656" y2="146.2656"/><polygon fill="#181818" points="124,136.2656,128,146.2656,132,136.2656,128,140.2656" style="stroke:#181818;stroke-width:1;"/><line style="stroke:#181818;stroke-width:1;" x1="62.0003" x2="62.0003" y1="268.2031" y2="288.2031"/><polygon fill="#181818" points="58.0003,278.2031,62.0003,288.2031,66.0003,278.2031,62.0003,282.2031" style="stroke:#181818;stroke-width:1;"/><line style="stroke:#181818;stroke-width:1;" x1="72.0003" x2="62.0003" y1="212.2344" y2="212.2344"/><line style="stroke:#181818;stroke-width:1;" x1="62.0003" x2="62.0003" y1="212.2344" y2="234.2344"/><polygon fill="#181818" points="58.0003,224.2344,62.0003,234.2344,66.0003,224.2344,62.0003,228.2344" style="stroke:#181818;stroke-width:1;"/><line style="stroke:#181818;stroke-width:1;" x1="183.9997" x2="193.9997" y1="212.2344" y2="212.2344"/><line style="stroke:#181818;stroke-width:1;" x1="193.9997" x2="193.9997" y1="212.2344" y2="234.2344"/><polygon fill="#181818" points="189.9997,224.2344,193.9997,234.2344,197.9997,224.2344,193.9997,228.2344" style="stroke:#181818;stroke-width:1;"/><line style="stroke:#181818;stroke-width:1;" x1="193.9997" x2="193.9997" y1="268.2031" y2="315.2031"/><line style="stroke:#181818;stroke-width:1;" x1="193.9997" x2="128" y1="315.2031" y2="315.2031"/><line style="stroke:#181818;stroke-width:1;" x1="128" x2="128" y1="315.2031" y2="330.2031"/><polygon fill="#181818" points="124,320.2031,128,330.2031,132,320.2031,128,324.2031" style="stroke:#181818;stroke-width:1;"/><line style="stroke:#181818;stroke-width:1;" x1="128" x2="128" y1="180.2344" y2="200.2344"/><polygon fill="#181818" points="124,190.2344,128,200.2344,132,190.2344,128,194.2344" style="stroke:#181818;stroke-width:1;"/><line style="stroke:#181818;stroke-width:1;" x1="128" x2="128" y1="364.1719" y2="384.1719"/><polygon fill="#181818" points="124,374.1719,128,384.1719,132,374.1719,128,378.1719" style="stroke:#181818;stroke-width:1;"/><line style="stroke:#181818;stroke-width:1;" x1="128" x2="128" y1="418.1406" y2="438.1406"/><polygon fill="#181818" points="124,428.1406,128,438.1406,132,428.1406,128,432.1406" style="stroke:#181818;stroke-width:1;"/><line style="stroke:#181818;stroke-width:1;" x1="128" x2="128" y1="472.1094" y2="492.1094"/><polygon fill="#181818" points="124,482.1094,128,492.1094,132,482.1094,128,486.1094" style="stroke:#181818;stroke-width:1;"/><line style="stroke:#181818;stroke-width:1;" x1="128" x2="128" y1="526.0781" y2="546.0781"/><polygon fill="#181818" points="124,536.0781,128,546.0781,132,536.0781,128,540.0781" style="stroke:#181818;stroke-width:1;"/><?plantuml-src JP0nJy9G58NtzojUuW8Jgw6ZYN7HtV59MsWeVQHznDMeRG03XO24X8481JGn1OKGqWg_flUrJFu5YzM4zPplddlkPGfJ9HnuJu6_XbcNr_gPQF70XnE-yg7-2eCTCegALYOwAU4RaYlcTLhHn3EgKXsVoASoaND7X2Z9fAAoSwgnArAIyAMIqwb1POQloOMa7956WOZqLj7oM2Qg8I5aCA8pb0Mx3PjUu7bG7O3lyOzxgBz5gvM0if6x2xTkE9j3rUBroTvy5v0YunJOSp3Rl35Ah6Yz16Vu_JLCOrQGjDXlJTC8uootMw7Z9L2mQSIS4Ci6esKanHLmYlVdlo1OVkXtCllH8w-Daqt9b80aJLJakAMv3lnUi9loveWt9xpxzppXw83mnOrS9vgDmLeUz5Ox8QCxCuxQcut_pFYm1MoV0y_X_GuqBR0_1NIezGC0?></g></svg>