<svg xmlns="http://www.w3.org/2000/svg" xmlns:xlink="http://www.w3.org/1999/xlink" contentStyleType="text/css" data-diagram-type="ACTIVITY" height="556px" preserveAspectRatio="none" style="width:333px;height:556px;background:#F8FAFC;" version="1.1" viewBox="0 0 333 556" width="333px" zoomAndPan="magnify"><?plantuml 1.2026.3beta6?><defs/><g><rect fill="#F8FAFC" height="556" style="stroke:none;stroke-width:1;" width="333" x="0" y="0"/><g class="title" data-source-line="1"><text fill="#000000" font-family="Microsoft YaHei" font-size="14" font-weight="700" lengthAdjust="spacing" textLength="145.1127" x="92.9603" y="32.9951">&#21095;&#26412;&#26432;/&#20070;&#31821;&#20511;&#38405;&#27963;&#21160;&#22270;</text></g><ellipse cx="172.0332" cy="62.2969" fill="#222222" rx="10" ry="10" style="stroke:#222222;stroke-width:1;"/><rect fill="#F1F1F1" height="33.9688" rx="12.5" ry="12.5" style="stroke:#181818;stroke-width:0.5;" width="116.0007" x="114.0328" y="92.2969"/><text fill="#000000" font-family="Microsoft YaHei" font-size="12" lengthAdjust="spacing" textLength="96.0007" x="124.0328" y="113.4355">&#29992;&#25143;&#36827;&#20837;&#20511;&#38405;&#39029;&#38754;</text><rect fill="#F1F1F1" height="33.9688" rx="12.5" ry="12.5" style="stroke:#181818;stroke-width:0.5;" width="128.0008" x="108.0328" y="146.2656"/><text fill="#000000" font-family="Microsoft YaHei" font-size="12" lengthAdjust="spacing" textLength="108.0008" x="118.0328" y="167.4043">&#27983;&#35272;&#24211;&#23384;&#19982;&#25152;&#22312;&#26657;&#21306;</text><polygon fill="#F1F1F1" points="133.5334,200.2344,210.5329,200.2344,222.5329,212.2344,210.5329,224.2344,133.5334,224.2344,121.5334,212.2344,133.5334,200.2344" style="stroke:#181818;stroke-width:0.5;"/><text fill="#000000" font-family="Microsoft YaHei" font-size="11" lengthAdjust="spacing" textLength="76.9995" x="133.5334" y="216.0425">&#29289;&#36164;&#26159;&#21542;&#22312;&#24211;&#65311;</text><text fill="#000000" font-family="Microsoft YaHei" font-size="11" lengthAdjust="spacing" textLength="10.9999" x="110.5335" y="209.6401">&#21542;</text><text fill="#000000" font-family="Microsoft YaHei" font-size="11" lengthAdjust="spacing" textLength="10.9999" x="222.5329" y="209.6401">&#26159;</text><rect fill="#F1F1F1" height="33.9688" rx="12.5" ry="12.5" style="stroke:#181818;stroke-width:0.5;" width="156.044" x="16" y="234.2344"/><text fill="#000000" font-family="Microsoft YaHei" font-size="12" lengthAdjust="spacing" textLength="136.044" x="26" y="255.373">&#20165;&#23637;&#31034;&#29366;&#24577;&#65306;&#20511;&#20986;/&#20256;&#36882;&#20013;</text><ellipse cx="94.022" cy="299.2031" fill="none" rx="11" ry="11" style="stroke:#222222;stroke-width:1;"/><ellipse cx="94.022" cy="299.2031" fill="#222222" rx="6" ry="6" style="stroke:#222222;stroke-width:1;"/><rect fill="#F1F1F1" height="33.9688" rx="12.5" ry="12.5" style="stroke:#181818;stroke-width:0.5;" width="116.0007" x="192.044" y="234.2344"/><text fill="#000000" font-family="Microsoft YaHei" font-size="12" lengthAdjust="spacing" textLength="96.0007" x="202.044" y="255.373">&#29992;&#25143;&#25552;&#20132;&#20511;&#38405;&#30003;&#35831;</text><rect fill="#F1F1F1" height="33.9688" rx="12.5" ry="12.5" style="stroke:#181818;stroke-width:0.5;" width="104.0006" x="198.044" y="288.2031"/><text fill="#000000" font-family="Microsoft YaHei" font-size="12" lengthAdjust="spacing" textLength="84.0006" x="208.044" y="309.3418">&#29366;&#24577;&#25913;&#20026;&#20256;&#36882;&#20013;</text><polygon fill="#F1F1F1" points="117.0335,342.1719,227.0328,342.1719,239.0328,354.1719,227.0328,366.1719,117.0335,366.1719,105.0335,354.1719,117.0335,342.1719" style="stroke:#181818;stroke-width:0.5;"/><text fill="#000000" font-family="Microsoft YaHei" font-size="11" lengthAdjust="spacing" textLength="109.9992" x="117.0335" y="357.98">&#31038;&#22242;&#31649;&#29702;&#23618;&#26159;&#21542;&#30830;&#35748;&#65311;</text><text fill="#000000" font-family="Microsoft YaHei" font-size="11" lengthAdjust="spacing" textLength="21.9998" x="83.0337" y="351.5776">&#21462;&#28040;</text><text fill="#000000" font-family="Microsoft YaHei" font-size="11" lengthAdjust="spacing" textLength="21.9998" x="239.0328" y="351.5776">&#30830;&#35748;</text><rect fill="#F1F1F1" height="33.9688" rx="12.5" ry="12.5" style="stroke:#181818;stroke-width:0.5;" width="104.0006" x="43.0332" y="376.1719"/><text fill="#000000" font-family="Microsoft YaHei" font-size="12" lengthAdjust="spacing" textLength="84.0006" x="53.0332" y="397.3105">&#20511;&#38405;&#20154;&#21462;&#28040;&#30003;&#35831;</text><rect fill="#F1F1F1" height="33.9688" rx="12.5" ry="12.5" style="stroke:#181818;stroke-width:0.5;" width="128.0008" x="185.0324" y="376.1719"/><text fill="#000000" font-family="Microsoft YaHei" font-size="12" lengthAdjust="spacing" textLength="108.0008" x="195.0324" y="397.3105">&#31649;&#29702;&#21592;&#30830;&#35748;&#23454;&#29289;&#20511;&#20986;</text><polygon fill="#F1F1F1" points="172.0332,416.1406,184.0332,428.1406,172.0332,440.1406,160.0332,428.1406,172.0332,416.1406" style="stroke:#181818;stroke-width:0.5;"/><rect fill="#F1F1F1" height="33.9688" rx="12.5" ry="12.5" style="stroke:#181818;stroke-width:0.5;" width="152.001" x="96.0327" y="460.1406"/><text fill="#000000" font-family="Microsoft YaHei" font-size="12" lengthAdjust="spacing" textLength="132.001" x="106.0327" y="481.2793">&#26356;&#26032;&#20511;&#38405;&#35760;&#24405;&#19982;&#29289;&#36164;&#29366;&#24577;</text><ellipse cx="172.0332" cy="525.1094" fill="none" rx="11" ry="11" style="stroke:#222222;stroke-width:1;"/><ellipse cx="172.0332" cy="525.1094" fill="#222222" rx="6" ry="6" style="stroke:#222222;stroke-width:1;"/><line style="stroke:#181818;stroke-width:1;" x1="172.0332" x2="172.0332" y1="72.2969" y2="92.2969"/><polygon fill="#181818" points="168.0332,82.2969,172.0332,92.2969,176.0332,82.2969,172.0332,86.2969" style="stroke:#181818;stroke-width:1;"/><line style="stroke:#181818;stroke-width:1;" x1="172.0332" x2="172.0332" y1="126.2656" y2="146.2656"/><polygon fill="#181818" points="168.0332,136.2656,172.0332,146.2656,176.0332,136.2656,172.0332,140.2656" style="stroke:#181818;stroke-width:1;"/><line style="stroke:#181818;stroke-width:1;" x1="94.022" x2="94.022" y1="268.2031" y2="288.2031"/><polygon fill="#181818" points="90.022,278.2031,94.022,288.2031,98.022,278.2031,94.022,282.2031" style="stroke:#181818;stroke-width:1;"/><line style="stroke:#181818;stroke-width:1;" x1="250.0443" x2="250.0443" y1="268.2031" y2="288.2031"/><polygon fill="#181818" points="246.0443,278.2031,250.0443,288.2031,254.0443,278.2031,250.0443,282.2031" style="stroke:#181818;stroke-width:1;"/><line style="stroke:#181818;stroke-width:1;" x1="121.5334" x2="94.022" y1="212.2344" y2="212.2344"/><line style="stroke:#181818;stroke-width:1;" x1="94.022" x2="94.022" y1="212.2344" y2="234.2344"/><polygon fill="#181818" points="90.022,224.2344,94.022,234.2344,98.022,224.2344,94.022,228.2344" style="stroke:#181818;stroke-width:1;"/><line style="stroke:#181818;stroke-width:1;" x1="222.5329" x2="250.0443" y1="212.2344" y2="212.2344"/><line style="stroke:#181818;stroke-width:1;" x1="250.0443" x2="250.0443" y1="212.2344" y2="234.2344"/><polygon fill="#181818" points="246.0443,224.2344,250.0443,234.2344,254.0443,224.2344,250.0443,228.2344" style="stroke:#181818;stroke-width:1;"/><line style="stroke:#181818;stroke-width:1;" x1="250.0443" x2="250.0443" y1="322.1719" y2="327.1719"/><line style="stroke:#181818;stroke-width:1;" x1="250.0443" x2="172.0332" y1="327.1719" y2="327.1719"/><line style="stroke:#181818;stroke-width:1;" x1="172.0332" x2="172.0332" y1="327.1719" y2="342.1719"/><polygon fill="#181818" points="168.0332,332.1719,172.0332,342.1719,176.0332,332.1719,172.0332,336.1719" style="stroke:#181818;stroke-width:1;"/><line style="stroke:#181818;stroke-width:1;" x1="172.0332" x2="172.0332" y1="180.2344" y2="200.2344"/><polygon fill="#181818" points="168.0332,190.2344,172.0332,200.2344,176.0332,190.2344,172.0332,194.2344" style="stroke:#181818;stroke-width:1;"/><line style="stroke:#181818;stroke-width:1;" x1="105.0335" x2="95.0335" y1="354.1719" y2="354.1719"/><line style="stroke:#181818;stroke-width:1;" x1="95.0335" x2="95.0335" y1="354.1719" y2="376.1719"/><polygon fill="#181818" points="91.0335,366.1719,95.0335,376.1719,99.0335,366.1719,95.0335,370.1719" style="stroke:#181818;stroke-width:1;"/><line style="stroke:#181818;stroke-width:1;" x1="239.0328" x2="249.0328" y1="354.1719" y2="354.1719"/><line style="stroke:#181818;stroke-width:1;" x1="249.0328" x2="249.0328" y1="354.1719" y2="376.1719"/><polygon fill="#181818" points="245.0328,366.1719,249.0328,376.1719,253.0328,366.1719,249.0328,370.1719" style="stroke:#181818;stroke-width:1;"/><line style="stroke:#181818;stroke-width:1;" x1="95.0335" x2="95.0335" y1="410.1406" y2="428.1406"/><line style="stroke:#181818;stroke-width:1;" x1="95.0335" x2="160.0332" y1="428.1406" y2="428.1406"/><polygon fill="#181818" points="150.0332,424.1406,160.0332,428.1406,150.0332,432.1406,154.0332,428.1406" style="stroke:#181818;stroke-width:1;"/><line style="stroke:#181818;stroke-width:1;" x1="249.0328" x2="249.0328" y1="410.1406" y2="428.1406"/><line style="stroke:#181818;stroke-width:1;" x1="249.0328" x2="184.0332" y1="428.1406" y2="428.1406"/><polygon fill="#181818" points="194.0332,424.1406,184.0332,428.1406,194.0332,432.1406,190.0332,428.1406" style="stroke:#181818;stroke-width:1;"/><line style="stroke:#181818;stroke-width:1;" x1="172.0332" x2="172.0332" y1="440.1406" y2="460.1406"/><polygon fill="#181818" points="168.0332,450.1406,172.0332,460.1406,176.0332,450.1406,172.0332,454.1406" style="stroke:#181818;stroke-width:1;"/><line style="stroke:#181818;stroke-width:1;" x1="172.0332" x2="172.0332" y1="494.1094" y2="514.1094"/><polygon fill="#181818" points="168.0332,504.1094,172.0332,514.1094,176.0332,504.1094,172.0332,508.1094" style="stroke:#181818;stroke-width:1;"/><?plantuml-src JP3DJi9058NtynIJk86LMqEN9iQDxbsEj8K6Q4axncqrea1KK94G0RK61HCf4Fcjg2_JcIahNi6n4nAsvvvxpdSlrd1QWQJGfeqFshGt_TaR6rmH-sbHoz7X5obsIFq7M2bDpo8JPU0XYgSIfd6aozj6sZ3XXhgb8ZM-vf0L5HsbyOwXutsKKU2U5ZSDor0nF42xYhRcj998DeurFG5LbBOK02oCJ0nYhDAX-KdmMoUvLq6oS4QBvei4OdHK2jfvujsHRisVNjE2JHeT-koGIqy2cWeZhF0UZCvehKVARtp4dSlvKnJYfAB32DUY0CAO_vKZWtlMybXnJEsJvVo1rv0BRzEVFo_iMt_QbRZDmaOMA1mCHdXUk2Z8QAdiUor1nYgVGMyYXSCmZ5Pc_jHR2r9qMLC5M-k7r5-Owx3oEHcS2aZck87RMeSiLUau7zQ92j_pXBRg4anYKM29o9kQq8ZxoDyWJbhrnsXzIAjzaHYuVV9zp_ydlYN09V1_y1y0?></g></svg>