<svg xmlns="http://www.w3.org/2000/svg" xmlns:xlink="http://www.w3.org/1999/xlink" contentStyleType="text/css" data-diagram-type="DESCRIPTION" height="307px" preserveAspectRatio="none" style="width:1260px;height:307px;background:#F8FAFC;" version="1.1" viewBox="0 0 1260 307" width="1260px" zoomAndPan="magnify"><?plantuml 1.2026.3beta6?><defs/><g><rect fill="#F8FAFC" height="307" style="stroke:none;stroke-width:1;" width="1260" x="0" y="0"/><g class="title" data-source-line="1"><text fill="#000000" font-family="Microsoft YaHei" font-size="14" font-weight="700" lengthAdjust="spacing" textLength="97.9996" x="578.0001" y="22.9951">&#21151;&#33021;&#27169;&#22359;&#20381;&#36182;&#22270;</text></g><!--entity Auth--><g class="entity" data-qualified-name="Auth" data-source-line="8" id="ent0002"><rect fill="#DBEAFE" height="36.2969" rx="2.5" ry="2.5" style="stroke:#181818;stroke-width:0.5;" width="89.9997" x="362" y="186.2969"/><text fill="#000000" font-family="Microsoft YaHei" font-size="14" lengthAdjust="spacing" textLength="69.9997" x="372" y="209.292">&#30331;&#24405;&#19982;&#26435;&#38480;</text></g><!--entity Puzzle--><g class="entity" data-qualified-name="Puzzle" data-source-line="9" id="ent0003"><rect fill="#FFF7ED" height="36.2969" rx="2.5" ry="2.5" style="stroke:#181818;stroke-width:0.5;" width="75.9998" x="566" y="115.2969"/><text fill="#000000" font-family="Microsoft YaHei" font-size="14" lengthAdjust="spacing" textLength="55.9998" x="576" y="138.292">&#27599;&#26085;&#35868;&#39064;</text></g><!--entity Credit--><g class="entity" data-qualified-name="Credit" data-source-line="10" id="ent0004"><rect fill="#ECFDF5" height="36.2969" rx="2.5" ry="2.5" style="stroke:#181818;stroke-width:0.5;" width="75.9998" x="778" y="115.2969"/><text fill="#000000" font-family="Microsoft YaHei" font-size="14" lengthAdjust="spacing" textLength="55.9998" x="788" y="138.292">&#31215;&#20998;&#36134;&#25143;</text></g><!--entity Rank--><g class="entity" data-qualified-name="Rank" data-source-line="11" id="ent0005"><rect fill="#FEF3C7" height="36.2969" rx="2.5" ry="2.5" style="stroke:#181818;stroke-width:0.5;" width="61.9998" x="988" y="186.2969"/><text fill="#000000" font-family="Microsoft YaHei" font-size="14" lengthAdjust="spacing" textLength="41.9998" x="998" y="209.292">&#25490;&#34892;&#27036;</text></g><!--entity Shop--><g class="entity" data-qualified-name="Shop" data-source-line="12" id="ent0006"><rect fill="#ECFDF5" height="36.2969" rx="2.5" ry="2.5" style="stroke:#181818;stroke-width:0.5;" width="75.9998" x="981" y="115.2969"/><text fill="#000000" font-family="Microsoft YaHei" font-size="14" lengthAdjust="spacing" textLength="55.9998" x="991" y="138.292">&#31215;&#20998;&#21830;&#22478;</text></g><!--entity Inventory--><g class="entity" data-qualified-name="Inventory" data-source-line="13" id="ent0007"><rect fill="#E0F2FE" height="36.2969" rx="2.5" ry="2.5" style="stroke:#181818;stroke-width:0.5;" width="75.9998" x="1171" y="228.2969"/><text fill="#000000" font-family="Microsoft YaHei" font-size="14" lengthAdjust="spacing" textLength="55.9998" x="1181" y="251.292">&#24211;&#23384;&#31649;&#29702;</text></g><!--entity Borrow--><g class="entity" data-qualified-name="Borrow" data-source-line="14" id="ent0008"><rect fill="#FFF7ED" height="36.2969" rx="2.5" ry="2.5" style="stroke:#181818;stroke-width:0.5;" width="75.9998" x="672" y="257.2969"/><text fill="#000000" font-family="Microsoft YaHei" font-size="14" lengthAdjust="spacing" textLength="55.9998" x="682" y="280.292">&#20511;&#38405;&#31995;&#32479;</text></g><!--entity Activity--><g class="entity" data-qualified-name="Activity" data-source-line="15" id="ent0009"><rect fill="#FCE7F3" height="36.2969" rx="2.5" ry="2.5" style="stroke:#181818;stroke-width:0.5;" width="75.9998" x="566" y="186.2969"/><text fill="#000000" font-family="Microsoft YaHei" font-size="14" lengthAdjust="spacing" textLength="55.9998" x="576" y="209.292">&#27963;&#21160;&#25253;&#21517;</text></g><!--entity Commission--><g class="entity" data-qualified-name="Commission" data-source-line="16" id="ent0010"><rect fill="#EDE9FE" height="36.2969" rx="2.5" ry="2.5" style="stroke:#181818;stroke-width:0.5;" width="75.9998" x="566" y="44.2969"/><text fill="#000000" font-family="Microsoft YaHei" font-size="14" lengthAdjust="spacing" textLength="55.9998" x="576" y="67.292">&#20107;&#20214;&#22996;&#25176;</text></g><!--entity Dud--><g class="entity" data-qualified-name="Dud" data-source-line="17" id="ent0011"><rect fill="#CFFAFE" height="36.2969" rx="2.5" ry="2.5" style="stroke:#181818;stroke-width:0.5;" width="118.5397" x="67.73" y="214.2969"/><text fill="#000000" font-family="Microsoft YaHei" font-size="14" lengthAdjust="spacing" textLength="98.5397" x="77.73" y="237.292">Dud&#20851;&#38190;&#35789;&#22238;&#22797;</text></g><!--entity Profile--><g class="entity" data-qualified-name="Profile" data-source-line="18" id="ent0012"><rect fill="#F1F5F9" height="36.2969" rx="2.5" ry="2.5" style="stroke:#181818;stroke-width:0.5;" width="113.4332" x="70.28" y="68.2969"/><text fill="#000000" font-family="Microsoft YaHei" font-size="14" lengthAdjust="spacing" textLength="93.4332" x="80.28" y="91.292">&#25512;&#33616;/&#21453;&#39304;/&#21517;&#29255;</text></g><g class="entity" data-qualified-name="GMN24" data-source-line="33" id="ent0025"><path d="M6,139.3169 L6,179.5825 A0,0 0 0 0 6,179.5825 L248.0003,179.5825 A0,0 0 0 0 248.0003,179.5825 L248.0003,149.3169 L238.0003,139.3169 L131,139.3169 L127,104.8969 L123,139.3169 L6,139.3169 A0,0 0 0 0 6,139.3169" fill="#FEFFDD" style="stroke:#181818;stroke-width:0.5;"/><path d="M238.0003,139.3169 L238.0003,149.3169 L248.0003,149.3169 L238.0003,139.3169" fill="#FEFFDD" style="stroke:#181818;stroke-width:0.5;"/><text fill="#000000" font-family="Microsoft YaHei" font-size="13" lengthAdjust="spacing" textLength="208.0002" x="12" y="156.3838">&#27169;&#22359;&#20381;&#36182;&#22270;&#29992;&#20110;&#36741;&#21161;&#21518;&#32493;&#26550;&#26500;&#35774;&#35745;&#65292;</text><text fill="#000000" font-family="Microsoft YaHei" font-size="13" lengthAdjust="spacing" textLength="221.0003" x="12" y="171.5166">&#31361;&#20986;&#26435;&#38480;&#12289;&#31215;&#20998;&#19982;&#24211;&#23384;&#19977;&#20010;&#20849;&#20139;&#26680;&#24515;&#12290;</text></g><!--link Auth to Puzzle--><g class="link" data-entity-1="ent0002" data-entity-2="ent0003" data-link-type="dependency" data-source-line="20" id="lnk13"><path d="M452.25,188.3369 C486.52,175.8569 527.8222,160.8199 560.1722,149.0399" fill="none" id="Auth-to-Puzzle" style="stroke:#181818;stroke-width:1;"/><polygon fill="#181818" points="565.81,146.9869,555.9846,146.3078,561.1118,148.6977,558.7219,153.8249,565.81,146.9869" style="stroke:#181818;stroke-width:1;"/><text fill="#000000" font-family="Microsoft YaHei" font-size="13" lengthAdjust="spacing" textLength="26" x="496" y="154.5138">&#25480;&#26435;</text></g><!--link Puzzle to Credit--><g class="link" data-entity-1="ent0003" data-entity-2="ent0004" data-link-type="dependency" data-source-line="21" id="lnk14"><path d="M642.06,133.4469 C680.21,133.4469 733.33,133.4469 771.6,133.4469" fill="none" id="Puzzle-to-Credit" style="stroke:#181818;stroke-width:1;"/><polygon fill="#181818" points="777.6,133.4469,768.6,129.4469,772.6,133.4469,768.6,137.4469,777.6,133.4469" style="stroke:#181818;stroke-width:1;"/><text fill="#000000" font-family="Microsoft YaHei" font-size="13" lengthAdjust="spacing" textLength="52.0001" x="684" y="129.5138">&#31572;&#23545;&#21152;&#20998;</text></g><!--link Credit to Rank--><g class="link" data-entity-1="ent0004" data-entity-2="ent0005" data-link-type="dependency" data-source-line="22" id="lnk15"><path d="M854.5,147.6369 C864.1,151.2169 874.41,155.0169 884,158.4469 C919.43,171.1369 954.6848,183.1688 981.8948,192.3488" fill="none" id="Credit-to-Rank" style="stroke:#181818;stroke-width:1;"/><polygon fill="#181818" points="987.58,194.2669,980.3309,187.5997,982.8424,192.6685,977.7736,195.1799,987.58,194.2669" style="stroke:#181818;stroke-width:1;"/><text fill="#000000" font-family="Microsoft YaHei" font-size="13" lengthAdjust="spacing" textLength="52.0001" x="891.5" y="154.5138">&#32047;&#35745;&#31215;&#20998;</text></g><!--link Credit to Shop--><g class="link" data-entity-1="ent0004" data-entity-2="ent0006" data-link-type="dependency" data-source-line="23" id="lnk16"><path d="M854.33,133.4469 C890.32,133.4469 938.49,133.4469 974.52,133.4469" fill="none" id="Credit-to-Shop" style="stroke:#181818;stroke-width:1;"/><polygon fill="#181818" points="980.52,133.4469,971.52,129.4469,975.52,133.4469,971.52,137.4469,980.52,133.4469" style="stroke:#181818;stroke-width:1;"/><text fill="#000000" font-family="Microsoft YaHei" font-size="13" lengthAdjust="spacing" textLength="65.0001" x="885" y="129.5138">&#21487;&#20817;&#25442;&#31215;&#20998;</text></g><!--link Shop to Inventory--><g class="link" data-entity-1="ent0006" data-entity-2="ent0007" data-link-type="dependency" data-source-line="24" id="lnk17"><path d="M1050.62,151.8569 C1085.48,172.8069 1136.9571,203.7464 1171.9371,224.7664" fill="none" id="Shop-to-Inventory" style="stroke:#181818;stroke-width:1;"/><polygon fill="#181818" points="1177.08,227.8569,1171.426,219.7926,1172.7943,225.2815,1167.3054,226.6498,1177.08,227.8569" style="stroke:#181818;stroke-width:1;"/><text fill="#000000" font-family="Microsoft YaHei" font-size="13" lengthAdjust="spacing" textLength="52.0001" x="1088" y="173.5138">&#24211;&#23384;&#25187;&#20943;</text></g><!--link Borrow to Inventory--><g class="link" data-entity-1="ent0008" data-entity-2="ent0007" data-link-type="dependency" data-source-line="25" id="lnk18"><path d="M748.36,273.2669 C840.57,267.8869 1072.2402,254.3659 1164.5602,248.9859" fill="none" id="Borrow-to-Inventory" style="stroke:#181818;stroke-width:1;"/><polygon fill="#181818" points="1170.55,248.6369,1161.3325,245.1672,1165.5585,248.9278,1161.798,253.1537,1170.55,248.6369" style="stroke:#181818;stroke-width:1;"/><text fill="#000000" font-family="Microsoft YaHei" font-size="13" lengthAdjust="spacing" textLength="52.0001" x="891.5" y="257.5138">&#29289;&#36164;&#29366;&#24577;</text></g><!--link Auth to Activity--><g class="link" data-entity-1="ent0002" data-entity-2="ent0009" data-link-type="dependency" data-source-line="26" id="lnk19"><path d="M452.25,204.4469 C486.52,204.4469 527.46,204.4469 559.81,204.4469" fill="none" id="Auth-to-Activity" style="stroke:#181818;stroke-width:1;"/><polygon fill="#181818" points="565.81,204.4469,556.81,200.4469,560.81,204.4469,556.81,208.4469,565.81,204.4469" style="stroke:#181818;stroke-width:1;"/><text fill="#000000" font-family="Microsoft YaHei" font-size="13" lengthAdjust="spacing" textLength="52.0001" x="483" y="200.5138">&#36523;&#20221;&#26657;&#39564;</text></g><!--link Auth to Borrow--><g class="link" data-entity-1="ent0002" data-entity-2="ent0008" data-link-type="dependency" data-source-line="27" id="lnk20"><path d="M452.33,220.4369 C462.04,223.6569 472.31,226.8369 482,229.4469 C548.01,247.2069 620.5352,260.6593 665.7952,268.3693" fill="none" id="Auth-to-Borrow" style="stroke:#181818;stroke-width:1;"/><polygon fill="#181818" points="671.71,269.3769,663.5095,263.9223,666.781,268.5372,662.1661,271.8087,671.71,269.3769" style="stroke:#181818;stroke-width:1;"/><text fill="#000000" font-family="Microsoft YaHei" font-size="13" lengthAdjust="spacing" textLength="52.0001" x="483" y="225.5138">&#36523;&#20221;&#26657;&#39564;</text></g><!--link Commission to Credit--><g class="link" data-entity-1="ent0010" data-entity-2="ent0004" data-link-type="dependency" data-source-line="28" id="lnk21"><path d="M642.49,73.9869 C671.43,83.0269 712.4,96.0869 748,108.4469 C757.62,111.7869 762.3263,113.4655 771.9263,117.0355" fill="none" id="Commission-to-Credit" style="stroke:#181818;stroke-width:1;"/><polygon fill="#181818" points="777.55,119.1269,770.5086,112.2407,772.8636,117.3841,767.7202,119.739,777.55,119.1269" style="stroke:#181818;stroke-width:1;"/><text fill="#000000" font-family="Microsoft YaHei" font-size="13" lengthAdjust="spacing" textLength="52.0001" x="684" y="80.5138">&#25253;&#37228;&#36716;&#31227;</text></g><!--link Dud to Auth--><g class="link" data-entity-1="ent0011" data-entity-2="ent0002" data-link-type="dependency" data-source-line="29" id="lnk22"><path d="M186.62,226.5469 C238.87,221.2869 308.2403,214.2989 355.6403,209.5189" fill="none" id="Dud-to-Auth" style="stroke:#181818;stroke-width:1;"/><polygon fill="#181818" points="361.61,208.9169,352.2541,205.8401,356.6352,209.4185,353.0568,213.7997,361.61,208.9169" style="stroke:#181818;stroke-width:1;"/><text fill="#000000" font-family="Microsoft YaHei" font-size="13" lengthAdjust="spacing" textLength="52.0001" x="279" y="208.5138">&#39057;&#29575;&#38480;&#21046;</text></g><!--link Profile to Auth--><g class="link" data-entity-1="ent0012" data-entity-2="ent0002" data-link-type="dependency" data-source-line="30" id="lnk23"><path d="M184.05,100.2969 C204.48,105.9969 227.58,113.1969 248,121.4469 C293.83,139.9469 338.6982,164.5921 369.9282,182.8221" fill="none" id="Profile-to-Auth" style="stroke:#181818;stroke-width:1;"/><polygon fill="#181818" points="375.11,185.8469,369.3539,177.8552,370.7919,183.3262,365.3208,184.7642,375.11,185.8469" style="stroke:#181818;stroke-width:1;"/><text fill="#000000" font-family="Microsoft YaHei" font-size="13" lengthAdjust="spacing" textLength="52.0001" x="279" y="131.5138">&#29992;&#25143;&#36164;&#26009;</text></g><?plantuml-src RPHDKzD07CRl-obsx9b1PHYa1sSKnz63ZYCdZo7PRJEqMIRTmi2f28MsqhHeUHjUIb6Wl5O7gBMnzSEGtIGdluBRj41QEMQVNvxzx_DaGrKQGP1bYivSWvTBR7lDQcuxLwjiimaY25D82TJLK9X2HTMHJ5MYWTYugar8kXI5Ov8y7j99N5D6I8JeC82VO0dBFa91M8f7w4kYqRTI5C4tggoJ61767wHNIFMHiR2aa2bL2q4iHMB8fyWaEa4qfD5HEYs6ROqXQQ480k1MWG_i3PCrLgoQmRVdt8ty0oZ5uBCu3SE0CeOaZFmih-JushxpVSlTM_V0T_6P6U4Sm1WF8QNBzh32KWlEvG5F_VJG4HqfAeK196C53tQv6f-TqX8_sFAuzv8sBWmH7f27_ZTaAmkiQ7ZWQ9XCt6V7wb_OsRfzNhBp2nxuMfiK0j6d1VqGF-u-4aiKtVMaVM7QPj6ZdnDT9rFt7ObVcYnJvfbzbi-sOnArJgfK-68P3U41FspLFrbcbHqMUBeTrGY9HjLOJ7m7OWm53NUFyIAkiEI5MpXtAbcskSE-jNSGop0WOzpRWr5silb-bikw1wb-COwTNcpteHEiUeKymeDu602loRw-fpTD1I4tKg9fq7bkIPrcWj0-Ax3ABvRP5K63pceBy2eHycN54QbwFVXbhuWWPBaAIoxpx5w7y9PR-bt-0lBAuUclR347Eb7tCdRwoBcQjpDLdfYzEy1js47er4yiiy5tI-xnqXtGSUkHVR5tdLNKw2PFdSQfVMY2LipU7Ysl87JtbcrZKLm6bgg2cqXzkbqeYwzQpCXNDm3G24LmZ51AeW32dd-1GAswuJIJB7F4yePjdl6TAj-PTywR8ik_lvV4A_RnB5kijw_VTMAs7P-uaEsih5hQgXspv0-hVi9tQ-pFt7NY8q2Q0biR_mC0?></g></svg>