<svg xmlns="http://www.w3.org/2000/svg" xmlns:xlink="http://www.w3.org/1999/xlink" contentStyleType="text/css" data-diagram-type="STATE" height="489px" preserveAspectRatio="none" style="width:400px;height:489px;background:#F8FAFC;" version="1.1" viewBox="0 0 400 489" width="400px" zoomAndPan="magnify"><?plantuml 1.2026.3beta6?><defs/><g><rect fill="#F8FAFC" height="489" style="stroke:none;stroke-width:1;" width="400" x="0" y="0"/><g class="title" data-source-line="1"><text fill="#000000" font-family="Microsoft YaHei" font-size="14" font-weight="700" lengthAdjust="spacing" textLength="111.9995" x="140.5003" y="22.9951">&#20511;&#38405;&#29289;&#36164;&#29366;&#24577;&#26426;&#22270;</text></g><g class="entity" data-qualified-name="Maintenance" id="ent0002"><rect fill="#F1F1F1" height="50" rx="12.5" ry="12.5" style="stroke:#181818;stroke-width:0.5;" width="80.7166" x="152.64" y="44.2969"/><line style="stroke:#181818;stroke-width:0.5;" x1="152.64" x2="233.3566" y1="70.5938" y2="70.5938"/><text fill="#000000" font-family="Microsoft YaHei" font-size="14" lengthAdjust="spacing" textLength="60.7166" x="162.64" y="62.292">&#32500;&#25252;/&#19979;&#26550;</text></g><g class="start_entity" data-qualified-name=".start." data-source-line="8" id="ent0002"><ellipse cx="327" cy="69.2969" fill="#222222" rx="10" ry="10" style="stroke:#222222;stroke-width:1;"/></g><g class="entity" data-qualified-name=".." id="ent0003"><rect fill="#F1F1F1" height="50" rx="12.5" ry="12.5" style="stroke:#181818;stroke-width:0.5;" width="50" x="225" y="171.2969"/><line style="stroke:#181818;stroke-width:0.5;" x1="225" x2="275" y1="197.5938" y2="197.5938"/><text fill="#000000" font-family="Microsoft YaHei" font-size="14" lengthAdjust="spacing" textLength="27.9999" x="236.0001" y="189.292">&#22312;&#24211;</text></g><g class="entity" data-qualified-name="..." id="ent0005"><rect fill="#F1F1F1" height="50" rx="12.5" ry="12.5" style="stroke:#181818;stroke-width:0.5;" width="61.9998" x="166" y="298.2969"/><line style="stroke:#181818;stroke-width:0.5;" x1="166" x2="227.9998" y1="324.5938" y2="324.5938"/><text fill="#000000" font-family="Microsoft YaHei" font-size="14" lengthAdjust="spacing" textLength="41.9998" x="176" y="316.292">&#20256;&#36882;&#20013;</text></g><g class="entity" data-qualified-name="..." id="ent0007"><rect fill="#F1F1F1" height="50" rx="12.5" ry="12.5" style="stroke:#181818;stroke-width:0.5;" width="61.9998" x="309" y="425.2969"/><line style="stroke:#181818;stroke-width:0.5;" x1="309" x2="370.9998" y1="451.5938" y2="451.5938"/><text fill="#000000" font-family="Microsoft YaHei" font-size="14" lengthAdjust="spacing" textLength="41.9998" x="319" y="443.292">&#24050;&#20511;&#20986;</text></g><g class="entity" data-qualified-name="GMN2" data-source-line="17" id="ent0003"><path d="M6,430.1669 L6,470.4325 A0,0 0 0 0 6,470.4325 L274.0003,470.4325 A0,0 0 0 0 274.0003,470.4325 L274.0003,440.1669 L264.0003,430.1669 L152.86,430.1669 L185.87,348.6969 L144.86,430.1669 L6,430.1669 A0,0 0 0 0 6,430.1669" fill="#FEFFDD" style="stroke:#181818;stroke-width:0.5;"/><path d="M264.0003,430.1669 L264.0003,440.1669 L274.0003,440.1669 L264.0003,430.1669" fill="#FEFFDD" style="stroke:#181818;stroke-width:0.5;"/><text fill="#000000" font-family="Microsoft YaHei" font-size="13" lengthAdjust="spacing" textLength="247.0003" x="12" y="447.2338">&#32422;&#26463;&#65306;&#20256;&#36882;&#20013;&#29366;&#24577;&#19979;&#65292;&#21482;&#26377;&#20511;&#38405;&#20154;&#21487;&#21462;&#28040;&#65307;</text><text fill="#000000" font-family="Microsoft YaHei" font-size="13" lengthAdjust="spacing" textLength="234.0003" x="12" y="462.3666">&#20854;&#20182;&#29992;&#25143;&#21482;&#33021;&#30475;&#21040;&#29366;&#24577;&#65292;&#19981;&#21487;&#20877;&#27425;&#20511;&#38405;&#12290;</text></g><!--link *start* to ??--><g class="link" data-entity-1="ent0002" data-entity-2="ent0003" data-link-type="dependency" data-source-line="8" id="lnk4"><path d="M322.55,78.7469 C315.4,92.1869 300.76,119.1969 287,141.2969 C280.87,151.1369 277.1647,156.7733 270.8247,165.9333" fill="none" id="*start*-to-&#22312;&#24211;" style="stroke:#181818;stroke-width:1;"/><polygon fill="#181818" points="267.41,170.8669,275.8211,165.743,270.2556,166.7556,269.243,161.1901,267.41,170.8669" style="stroke:#181818;stroke-width:1;"/></g><!--link ?? to ???--><g class="link" data-entity-1="ent0003" data-entity-2="ent0005" data-link-type="dependency" data-source-line="9" id="lnk6"><path d="M224.58,203.5769 C201.34,210.8069 168.33,225.2069 153,251.2969 C143.81,266.9269 149.9591,279.8654 162.8791,293.4754" fill="none" id="&#22312;&#24211;-to-&#20256;&#36882;&#20013;" style="stroke:#181818;stroke-width:1;"/><polygon fill="#181818" points="167.01,297.8269,163.7147,288.5457,163.5676,294.2006,157.9126,294.0535,167.01,297.8269" style="stroke:#181818;stroke-width:1;"/><text fill="#000000" font-family="Microsoft YaHei" font-size="13" lengthAdjust="spacing" textLength="52.0001" x="154" y="264.3638">&#29992;&#25143;&#30003;&#35831;</text></g><!--link ??? to ??--><g class="link" data-entity-1="ent0005" data-entity-2="ent0003" data-link-type="dependency" data-source-line="11" id="lnk9"><path d="M207.32,297.9569 C216.65,275.9569 227.9771,249.2405 237.3171,227.2205" fill="none" id="&#20256;&#36882;&#20013;-to-&#22312;&#24211;" style="stroke:#181818;stroke-width:1;"/><polygon fill="#181818" points="239.66,221.6969,232.4632,228.4204,237.7076,226.2999,239.8281,231.5443,239.66,221.6969" style="stroke:#181818;stroke-width:1;"/><text fill="#000000" font-family="Microsoft YaHei" font-size="13" lengthAdjust="spacing" textLength="65.0001" x="228" y="264.3638">&#20511;&#38405;&#20154;&#21462;&#28040;</text></g><!--link ??? to ???--><g class="link" data-entity-1="ent0005" data-entity-2="ent0007" data-link-type="dependency" data-source-line="10" id="lnk8"><path d="M210.5,348.6669 C219.49,363.3969 232.33,381.8569 247,395.2969 C257.05,404.5069 280.6013,417.9433 303.5213,430.2233" fill="none" id="&#20256;&#36882;&#20013;-to-&#24050;&#20511;&#20986;" style="stroke:#181818;stroke-width:1;"/><polygon fill="#181818" points="308.81,433.0569,302.7659,425.2807,304.4027,430.6956,298.9878,432.3323,308.81,433.0569" style="stroke:#181818;stroke-width:1;"/><text fill="#000000" font-family="Microsoft YaHei" font-size="13" lengthAdjust="spacing" textLength="65.0001" x="248" y="391.3638">&#31649;&#29702;&#21592;&#30830;&#35748;</text></g><!--link ??? to ??--><g class="link" data-entity-1="ent0007" data-entity-2="ent0003" data-link-type="dependency" data-source-line="12" id="lnk10"><path d="M339.72,425.0069 C338.33,386.1669 331.71,308.6369 302,251.2969 C295.47,238.6969 289.4457,231.1528 279.6557,221.9228" fill="none" id="&#24050;&#20511;&#20986;-to-&#22312;&#24211;" style="stroke:#181818;stroke-width:1;"/><polygon fill="#181818" points="275.29,217.8069,279.0945,226.8912,278.9281,221.2368,284.5825,221.0703,275.29,217.8069" style="stroke:#181818;stroke-width:1;"/><text fill="#000000" font-family="Microsoft YaHei" font-size="13" lengthAdjust="spacing" textLength="52.0001" x="332" y="327.8638">&#24402;&#36824;&#20837;&#24211;</text></g><!--link ?? to Maintenance--><g class="link" data-entity-1="ent0003" data-entity-2="ent0002" data-link-type="dependency" data-source-line="13" id="lnk11"><path d="M224.74,190.8569 C198.41,184.7469 158.45,170.9069 140,141.2969 C129.91,125.1069 137.5318,111.9176 152.7118,98.5176" fill="none" id="&#22312;&#24211;-to-Maintenance" style="stroke:#181818;stroke-width:1;"/><polygon fill="#181818" points="157.21,94.5469,147.8156,97.5042,153.4615,97.8558,153.1099,103.5017,157.21,94.5469" style="stroke:#181818;stroke-width:1;"/><text fill="#000000" font-family="Microsoft YaHei" font-size="13" lengthAdjust="spacing" textLength="65.0001" x="141" y="137.3638">&#31649;&#29702;&#21592;&#19979;&#26550;</text></g><!--link Maintenance to ??--><g class="link" data-entity-1="ent0002" data-entity-2="ent0003" data-link-type="dependency" data-source-line="14" id="lnk12"><path d="M204.13,94.6969 C214.17,116.7169 226.381,143.4975 236.411,165.4975" fill="none" id="Maintenance-to-&#22312;&#24211;" style="stroke:#181818;stroke-width:1;"/><polygon fill="#181818" points="238.9,170.9569,238.8061,161.1085,236.8258,166.4074,231.5269,164.4271,238.9,170.9569" style="stroke:#181818;stroke-width:1;"/><text fill="#000000" font-family="Microsoft YaHei" font-size="13" lengthAdjust="spacing" textLength="52.0001" x="226" y="137.3638">&#24674;&#22797;&#19978;&#26550;</text></g><?plantuml-src NP7BJi9058RtynGdk3CXRWqBDoR6ZUwDSJ50YuqmO-WOjqK5kKZmGWXH535er2WOBuLKr8UnCrDMl8A56gci9Zdd-_zp_ZDCOt45k57lLzCoT-UyxScyAOoKg5dyx1Ff6nhPn4cSW32ERCIIT8j4vscS9c5AdLMn6l4HKKN5Mt6sG0bRnWa5bhH8akfKPR225nNDH-hhE4gtDH835STr1I6TOQP0GBw_YdnpnkuMn8KP0Ap34jO8KmWc4PTQdLw3O70EUEsMMoV8UqOLktVPDuxjxYE4G9PlHROZoozEkuF6ZP6my-mcvVlM46irv6667rLbe-MqcfEavntwlOnjMRnK4MOMZIt-On_7pbULfwyd5lFjxv_f9KJ-xZyxaRhYpQBTpGyfHAXxd31bZ2Q0gkEm241QD-AyFkYT_XMzxtC737e7l7GlQZbVXBQNOj0xSxKyRThl5UzSBkdiViXQWMUVF0TNRdUBGqccA1uQdictiOCK4eNXHZy0?></g></svg>