<svg xmlns="http://www.w3.org/2000/svg" xmlns:xlink="http://www.w3.org/1999/xlink" contentStyleType="text/css" data-diagram-type="DESCRIPTION" height="1345px" preserveAspectRatio="none" style="width:1325px;height:1345px;background:#F8FAFC;" version="1.1" viewBox="0 0 1325 1345" width="1325px" zoomAndPan="magnify"><?plantuml 1.2026.3beta6?><defs/><g><rect fill="#F8FAFC" height="1345" style="stroke:none;stroke-width:1;" width="1325" x="0" y="0"/><g class="title" data-source-line="1"><text fill="#000000" font-family="Microsoft YaHei" font-size="14" font-weight="700" lengthAdjust="spacing" textLength="188.8353" x="565.0424" y="22.9951">nk&#25512;&#21327;&#20390;&#25506;&#31649;&#29702;&#31995;&#32479; - &#29992;&#20363;&#22270;</text></g><!--cluster ???????????????--><g class="cluster" data-qualified-name="..............." data-source-line="19" id="ent0004"><rect fill="none" height="865" rx="2.5" ry="2.5" style="stroke:#181818;stroke-width:1;" width="835.46" x="476.46" y="99.4369"/><text fill="#000000" font-family="Microsoft YaHei" font-size="14" font-weight="700" lengthAdjust="spacing" textLength="209.9991" x="789.1905" y="114.432">&#31995;&#32479;&#36793;&#30028;&#65306;&#24494;&#20449;&#23567;&#31243;&#24207;&#19982;&#31649;&#29702;&#21518;&#21488;</text></g><!--entity UCLogin--><g class="entity" data-qualified-name="................UCLogin" data-source-line="20" id="ent0005"><ellipse cx="1234.4142" cy="856.4397" fill="#FFF7ED" rx="61.5142" ry="14.7028" style="stroke:#344E41;stroke-width:0.5;"/><text fill="#172554" font-family="Microsoft YaHei" font-size="14" lengthAdjust="spacing" textLength="83.9996" x="1192.4144" y="861.0882">&#24494;&#20449;&#25480;&#26435;&#30331;&#24405;</text></g><!--entity UCPuzzle--><g class="entity" data-qualified-name="................UCPuzzle" data-source-line="21" id="ent0006"><ellipse cx="984.6642" cy="930.4397" fill="#FFF7ED" rx="61.5142" ry="14.7028" style="stroke:#344E41;stroke-width:0.5;"/><text fill="#172554" font-family="Microsoft YaHei" font-size="14" lengthAdjust="spacing" textLength="83.9996" x="942.6644" y="935.0882">&#27599;&#26085;&#35868;&#39064;&#31572;&#39064;</text></g><!--entity UCRank--><g class="entity" data-qualified-name="................UCRank" data-source-line="22" id="ent0007"><ellipse cx="564.9273" cy="675.4405" fill="#FFF7ED" rx="52.4973" ry="14.5236" style="stroke:#344E41;stroke-width:0.5;"/><text fill="#172554" font-family="Microsoft YaHei" font-size="14" lengthAdjust="spacing" textLength="69.9997" x="529.9274" y="680.0889">&#26597;&#30475;&#31215;&#20998;&#27036;</text></g><!--entity UCShop--><g class="entity" data-qualified-name="................UCShop" data-source-line="23" id="ent0008"><ellipse cx="984.6642" cy="863.4397" fill="#FFF7ED" rx="61.5142" ry="14.7028" style="stroke:#344E41;stroke-width:0.5;"/><text fill="#172554" font-family="Microsoft YaHei" font-size="14" lengthAdjust="spacing" textLength="83.9996" x="942.6644" y="868.0882">&#20817;&#25442;&#31215;&#20998;&#21830;&#21697;</text></g><!--entity UCActivity--><g class="entity" data-qualified-name="................UCActivity" data-source-line="24" id="ent0009"><ellipse cx="564.9294" cy="740.4327" fill="#FFF7ED" rx="63.2294" ry="15.0459" style="stroke:#344E41;stroke-width:0.5;"/><text fill="#172554" font-family="Microsoft YaHei" font-size="14" lengthAdjust="spacing" textLength="88.7164" x="520.5712" y="745.0812">&#27963;&#21160;&#25253;&#21517;/&#21462;&#28040;</text></g><!--entity UCFeedback--><g class="entity" data-qualified-name="................UCFeedback" data-source-line="25" id="ent0010"><ellipse cx="564.9342" cy="805.4397" fill="#FFF7ED" rx="61.5142" ry="14.7028" style="stroke:#344E41;stroke-width:0.5;"/><text fill="#172554" font-family="Microsoft YaHei" font-size="14" lengthAdjust="spacing" textLength="83.9996" x="522.9344" y="810.0882">&#25552;&#20132;&#21453;&#39304;&#24314;&#35758;</text></g><!--entity UCCard--><g class="entity" data-qualified-name="................UCCard" data-source-line="26" id="ent0011"><ellipse cx="564.9342" cy="869.4397" fill="#FFF7ED" rx="61.5142" ry="14.7028" style="stroke:#344E41;stroke-width:0.5;"/><text fill="#172554" font-family="Microsoft YaHei" font-size="14" lengthAdjust="spacing" textLength="83.9996" x="522.9344" y="874.0882">&#32500;&#25252;&#20390;&#25506;&#21517;&#29255;</text></g><!--entity UCBorrow--><g class="entity" data-qualified-name="................UCBorrow" data-source-line="27" id="ent0012"><ellipse cx="984.6594" cy="734.4327" fill="#FFF7ED" rx="63.2294" ry="15.0459" style="stroke:#344E41;stroke-width:0.5;"/><text fill="#172554" font-family="Microsoft YaHei" font-size="14" lengthAdjust="spacing" textLength="88.7164" x="940.3012" y="739.0812">&#20511;&#38405;&#21095;&#26412;/&#20070;&#31821;</text></g><!--entity UCRecommend--><g class="entity" data-qualified-name="................UCRecommend" data-source-line="28" id="ent0013"><ellipse cx="564.9342" cy="933.4397" fill="#FFF7ED" rx="61.5142" ry="14.7028" style="stroke:#344E41;stroke-width:0.5;"/><text fill="#172554" font-family="Microsoft YaHei" font-size="14" lengthAdjust="spacing" textLength="83.9996" x="522.9344" y="938.0882">&#27983;&#35272;&#25512;&#33616;&#20869;&#23481;</text></g><!--entity UCDud--><g class="entity" data-qualified-name="................UCDud" data-source-line="29" id="ent0014"><ellipse cx="564.9331" cy="544.4335" fill="#FFF7ED" rx="66.9331" ry="15.7866" style="stroke:#344E41;stroke-width:0.5;"/><text fill="#172554" font-family="Microsoft YaHei" font-size="14" lengthAdjust="spacing" textLength="98.5397" x="515.6633" y="549.0819">Dud&#20851;&#38190;&#35789;&#20114;&#21160;</text></g><!--entity UCPost--><g class="entity" data-qualified-name="................UCPost" data-source-line="30" id="ent0015"><ellipse cx="984.6642" cy="799.4397" fill="#FFF7ED" rx="61.5142" ry="14.7028" style="stroke:#344E41;stroke-width:0.5;"/><text fill="#172554" font-family="Microsoft YaHei" font-size="14" lengthAdjust="spacing" textLength="83.9996" x="942.6644" y="804.0882">&#21457;&#24067;&#20107;&#20214;&#22996;&#25176;</text></g><!--entity UCAccept--><g class="entity" data-qualified-name="................UCAccept" data-source-line="31" id="ent0016"><ellipse cx="564.9294" cy="610.4327" fill="#FFF7ED" rx="63.2294" ry="15.0459" style="stroke:#344E41;stroke-width:0.5;"/><text fill="#172554" font-family="Microsoft YaHei" font-size="14" lengthAdjust="spacing" textLength="88.7164" x="520.5712" y="615.0812">&#25509;&#25910;/&#23436;&#25104;&#22996;&#25176;</text></g><!--entity AdminPuzzle--><g class="entity" data-qualified-name="................AdminPuzzle" data-source-line="33" id="ent0017"><ellipse cx="564.9342" cy="215.4397" fill="#ECFEFF" rx="61.5142" ry="14.7028" style="stroke:#344E41;stroke-width:0.5;"/><text fill="#172554" font-family="Microsoft YaHei" font-size="14" lengthAdjust="spacing" textLength="83.9996" x="522.9344" y="220.0882">&#39044;&#35774;&#27599;&#26085;&#35868;&#39064;</text></g><!--entity AdminDud--><g class="entity" data-qualified-name="................AdminDud" data-source-line="34" id="ent0018"><ellipse cx="564.931" cy="282.4411" fill="#ECFEFF" rx="72.471" ry="16.8942" style="stroke:#344E41;stroke-width:0.5;"/><text fill="#172554" font-family="Microsoft YaHei" font-size="14" lengthAdjust="spacing" textLength="112.5397" x="508.6612" y="287.0895">&#37197;&#32622;Dud&#22238;&#22797;&#35268;&#21017;</text></g><!--entity AdminBorrow--><g class="entity" data-qualified-name="................AdminBorrow" data-source-line="35" id="ent0019"><ellipse cx="564.9342" cy="349.4397" fill="#ECFEFF" rx="61.5142" ry="14.7028" style="stroke:#344E41;stroke-width:0.5;"/><text fill="#172554" font-family="Microsoft YaHei" font-size="14" lengthAdjust="spacing" textLength="83.9996" x="522.9344" y="354.0882">&#30830;&#35748;&#20511;&#38405;&#27969;&#36716;</text></g><!--entity AdminInventory--><g class="entity" data-qualified-name="................AdminInventory" data-source-line="36" id="ent0020"><ellipse cx="564.9294" cy="414.4327" fill="#ECFEFF" rx="63.2294" ry="15.0459" style="stroke:#344E41;stroke-width:0.5;"/><text fill="#172554" font-family="Microsoft YaHei" font-size="14" lengthAdjust="spacing" textLength="88.7164" x="520.5712" y="419.0812">&#32500;&#25252;&#24211;&#23384;/&#21830;&#22478;</text></g><!--entity AdminActivity--><g class="entity" data-qualified-name="................AdminActivity" data-source-line="37" id="ent0021"><ellipse cx="564.9342" cy="479.4397" fill="#ECFEFF" rx="61.5142" ry="14.7028" style="stroke:#344E41;stroke-width:0.5;"/><text fill="#172554" font-family="Microsoft YaHei" font-size="14" lengthAdjust="spacing" textLength="83.9996" x="522.9344" y="484.0882">&#32500;&#25252;&#27963;&#21160;&#21442;&#25968;</text></g><!--entity AdminAudit--><g class="entity" data-qualified-name="................AdminAudit" data-source-line="38" id="ent0022"><ellipse cx="564.9252" cy="150.4319" fill="#ECFEFF" rx="66.7252" ry="15.745" style="stroke:#344E41;stroke-width:0.5;"/><text fill="#172554" font-family="Microsoft YaHei" font-size="14" lengthAdjust="spacing" textLength="97.9996" x="515.9254" y="155.0804">&#26597;&#30475;&#21453;&#39304;&#19982;&#23457;&#35745;</text></g><!--entity User--><g class="entity" data-qualified-name="User" data-source-line="16" id="ent0002"><ellipse cx="228.0782" cy="839.7869" fill="#F1F1F1" rx="8" ry="8" style="stroke:#334155;stroke-width:0.5;"/><path d="M228.0782,847.7869 L228.0782,874.7869 M215.0782,855.7869 L241.0782,855.7869 M228.0782,874.7869 L215.0782,889.7869 M228.0782,874.7869 L241.0782,889.7869" fill="none" style="stroke:#334155;stroke-width:0.5;"/><text fill="#1F2937" font-family="Microsoft YaHei" font-size="14" lengthAdjust="spacing" textLength="88.7164" x="183.72" y="904.282">&#26222;&#36890;&#29992;&#25143;/&#20390;&#25506;</text></g><!--entity Admin--><g class="entity" data-qualified-name="Admin" data-source-line="17" id="ent0003"><ellipse cx="64.3582" cy="323.7869" fill="#F1F1F1" rx="8" ry="8" style="stroke:#334155;stroke-width:0.5;"/><path d="M64.3582,331.7869 L64.3582,358.7869 M51.3582,339.7869 L77.3582,339.7869 M64.3582,358.7869 L51.3582,373.7869 M64.3582,358.7869 L77.3582,373.7869" fill="none" style="stroke:#334155;stroke-width:0.5;"/><text fill="#1F2937" font-family="Microsoft YaHei" font-size="14" lengthAdjust="spacing" textLength="116.7163" x="6" y="388.282">&#31649;&#29702;&#21592;/&#31038;&#22242;&#31649;&#29702;&#23618;</text></g><g class="entity" data-qualified-name="GMN49" data-source-line="71" id="ent0050"><path d="M333.43,43.2969 L333.43,83.5625 A0,0 0 0 0 333.43,83.5625 L560.93,83.5625 L564.93,134.4569 L568.93,83.5625 L796.4303,83.5625 A0,0 0 0 0 796.4303,83.5625 L796.4303,53.2969 L786.4303,43.2969 L333.43,43.2969 A0,0 0 0 0 333.43,43.2969" fill="#FEFFDD" style="stroke:#181818;stroke-width:0.5;"/><path d="M786.4303,43.2969 L786.4303,53.2969 L796.4303,53.2969 L786.4303,43.2969" fill="#FEFFDD" style="stroke:#181818;stroke-width:0.5;"/><text fill="#000000" font-family="Microsoft YaHei" font-size="13" lengthAdjust="spacing" textLength="221.0003" x="339.43" y="60.3638">&#26222;&#36890;&#29992;&#25143;&#36890;&#36807;&#24494;&#20449;&#25480;&#26435;&#36827;&#20837;&#26680;&#24515;&#19994;&#21153;&#65307;</text><text fill="#000000" font-family="Microsoft YaHei" font-size="13" lengthAdjust="spacing" textLength="442.0003" x="339.43" y="75.4966">&#31649;&#29702;&#21592;&#32487;&#25215;&#26222;&#36890;&#29992;&#25143;&#26435;&#38480;&#65292;&#24182;&#39069;&#22806;&#32500;&#25252;&#35868;&#39064;&#12289;&#35268;&#21017;&#12289;&#24211;&#23384;&#12289;&#27963;&#21160;&#19982;&#20511;&#38405;&#29366;&#24577;&#12290;</text></g><!--link User to UCLogin--><g class="link" data-entity-1="ent0002" data-entity-2="ent0005" data-link-type="dependency" data-source-line="41" id="lnk23"><path d="M234.29,908.0769 C246.53,991.8469 280.14,1185.3669 333.43,1219.4369 C506.82,1330.2569 594.02,1256.4969 796.43,1219.4369 C1012.77,1179.8169 1180.5274,938.8188 1221.0274,876.0388" fill="none" id="User-to-UCLogin" style="stroke:#181818;stroke-width:1;"/><polygon fill="#181818" points="1224.28,870.9969,1216.0399,876.3913,1221.5695,875.1985,1222.7624,880.7281,1224.28,870.9969" style="stroke:#181818;stroke-width:1;"/></g><!--link User to UCPuzzle--><g class="link" data-entity-1="ent0002" data-entity-2="ent0006" data-link-type="dependency" data-source-line="42" id="lnk24"><path d="M228.59,907.8569 C230.13,975.4169 244.57,1113.5169 333.43,1168.4369 C439.05,1233.7069 798.24,1222.4669 891.43,1140.4369 C952.86,1086.3669 974.1159,989.7056 980.4959,951.3356" fill="none" id="User-to-UCPuzzle" style="stroke:#181818;stroke-width:1;"/><polygon fill="#181818" points="981.48,945.4169,976.058,953.6389,980.6599,950.3492,983.9496,954.9511,981.48,945.4169" style="stroke:#181818;stroke-width:1;"/></g><!--link User to UCRank--><g class="link" data-entity-1="ent0002" data-entity-2="ent0007" data-link-type="dependency" data-source-line="43" id="lnk25"><path d="M242.77,831.0369 C258.46,793.0269 288.03,736.4169 333.43,707.4369 C388.09,672.5369 458.8153,668.5645 508.4553,670.6545" fill="none" id="User-to-UCRank" style="stroke:#181818;stroke-width:1;"/><polygon fill="#181818" points="514.45,670.9069,505.6262,666.5318,509.4544,670.6965,505.2897,674.5247,514.45,670.9069" style="stroke:#181818;stroke-width:1;"/></g><!--link User to UCShop--><g class="link" data-entity-1="ent0002" data-entity-2="ent0008" data-link-type="dependency" data-source-line="44" id="lnk26"><path d="M228.64,908.0569 C230.39,961.0269 242.41,1054.6269 302.43,1098.4369 C408.16,1175.5869 792.25,1183.8469 891.43,1098.4369 C959.54,1039.7769 870.41,972.4269 921.43,898.4369 C928.26,888.5369 933.5132,883.8589 944.0232,878.4589" fill="none" id="User-to-UCShop" style="stroke:#181818;stroke-width:1;"/><polygon fill="#181818" points="949.36,875.7169,939.5268,876.272,944.9127,878.0019,943.1828,883.3878,949.36,875.7169" style="stroke:#181818;stroke-width:1;"/></g><!--link User to UCActivity--><g class="link" data-entity-1="ent0002" data-entity-2="ent0009" data-link-type="dependency" data-source-line="45" id="lnk27"><path d="M260.35,831.0769 C279.28,810.5669 305.19,786.8369 333.43,773.4369 C386.39,748.3069 447.3132,741.2515 495.3832,739.6915" fill="none" id="User-to-UCActivity" style="stroke:#181818;stroke-width:1;"/><polygon fill="#181818" points="501.38,739.4969,492.255,735.7909,496.3826,739.6591,492.5145,743.7867,501.38,739.4969" style="stroke:#181818;stroke-width:1;"/></g><!--link User to UCFeedback--><g class="link" data-entity-1="ent0002" data-entity-2="ent0010" data-link-type="dependency" data-source-line="46" id="lnk28"><path d="M272.57,852.8169 C282.31,849.4269 292.65,846.0969 302.43,843.4369 C370.93,824.7769 446.1959,815.3536 499.7459,810.3636" fill="none" id="User-to-UCFeedback" style="stroke:#181818;stroke-width:1;"/><polygon fill="#181818" points="505.72,809.8069,496.3877,806.6592,500.7416,810.2708,497.1299,814.6247,505.72,809.8069" style="stroke:#181818;stroke-width:1;"/></g><!--link User to UCCard--><g class="link" data-entity-1="ent0002" data-entity-2="ent0011" data-link-type="dependency" data-source-line="47" id="lnk29"><path d="M272.85,869.4369 C331.71,869.4369 430.63,869.4369 497.12,869.4369" fill="none" id="User-to-UCCard" style="stroke:#181818;stroke-width:1;"/><polygon fill="#181818" points="503.12,869.4369,494.12,865.4369,498.12,869.4369,494.12,873.4369,503.12,869.4369" style="stroke:#181818;stroke-width:1;"/></g><!--link User to UCBorrow--><g class="link" data-entity-1="ent0002" data-entity-2="ent0012" data-link-type="dependency" data-source-line="48" id="lnk30"><path d="M258.36,907.8569 C277.17,929.2369 303.62,953.8069 333.43,965.4369 C525.15,1040.2069 616.23,1064.7769 796.43,965.4369 C887.57,915.1869 845.12,838.1869 921.43,767.4369 C930.04,759.4569 935.5829,755.5189 945.8529,750.3389" fill="none" id="User-to-UCBorrow" style="stroke:#181818;stroke-width:1;"/><polygon fill="#181818" points="951.21,747.6369,941.3729,748.1185,946.7457,749.8886,944.9757,755.2614,951.21,747.6369" style="stroke:#181818;stroke-width:1;"/></g><!--link User to UCRecommend--><g class="link" data-entity-1="ent0002" data-entity-2="ent0013" data-link-type="dependency" data-source-line="49" id="lnk31"><path d="M272.84,884.5569 C291.35,890.5069 313.26,896.9769 333.43,901.4369 C392.01,914.3969 454.2239,922.45 501.1539,927.46" fill="none" id="User-to-UCRecommend" style="stroke:#181818;stroke-width:1;"/><polygon fill="#181818" points="507.12,928.0969,498.5955,923.1641,502.1483,927.5661,497.7462,931.1189,507.12,928.0969" style="stroke:#181818;stroke-width:1;"/></g><!--link User to UCDud--><g class="link" data-entity-1="ent0002" data-entity-2="ent0014" data-link-type="dependency" data-source-line="50" id="lnk32"><path d="M230.17,830.9469 C234.3,766.5669 252.79,638.1469 333.43,577.4369 C381.96,540.8969 446.9252,535.638 497.2752,537.728" fill="none" id="User-to-UCDud" style="stroke:#181818;stroke-width:1;"/><polygon fill="#181818" points="503.27,537.9769,494.4436,533.6071,498.2743,537.7695,494.1118,541.6002,503.27,537.9769" style="stroke:#181818;stroke-width:1;"/></g><!--link User to UCPost--><g class="link" data-entity-1="ent0002" data-entity-2="ent0015" data-link-type="dependency" data-source-line="51" id="lnk33"><path d="M234.93,907.7369 C242.96,945.4969 261.39,1001.2369 302.43,1027.4369 C412.77,1097.8569 792.13,1112.6969 891.43,1027.4369 C958.3,970.0269 869.95,902.9569 921.43,831.4369 C927.75,822.6569 931.819,818.7912 941.459,813.9912" fill="none" id="User-to-UCPost" style="stroke:#181818;stroke-width:1;"/><polygon fill="#181818" points="946.83,811.3169,936.9906,811.7477,942.3542,813.5455,940.5564,818.9091,946.83,811.3169" style="stroke:#181818;stroke-width:1;"/></g><!--link User to UCAccept--><g class="link" data-entity-1="ent0002" data-entity-2="ent0016" data-link-type="dependency" data-source-line="52" id="lnk34"><path d="M235.11,831.0469 C245.42,779.3269 271.67,688.5569 333.43,643.4369 C383.37,606.9469 449.9555,602.0296 500.2755,604.1896" fill="none" id="User-to-UCAccept" style="stroke:#181818;stroke-width:1;"/><polygon fill="#181818" points="506.27,604.4469,497.4498,600.0646,501.2746,604.2324,497.1067,608.0572,506.27,604.4469" style="stroke:#181818;stroke-width:1;"/></g><!--link Admin to AdminPuzzle--><g class="link" data-entity-1="ent0003" data-entity-2="ent0017" data-link-type="dependency" data-source-line="54" id="lnk35"><path d="M122.88,317.3569 C132.68,311.7469 142.88,306.2269 152.72,301.4369 C166,294.9669 169.68,294.0569 183.72,289.4369 C249.24,267.8469 265.88,262.4569 333.43,248.4369 C392.61,236.1469 455.3211,227.6584 502.2111,222.1384" fill="none" id="Admin-to-AdminPuzzle" style="stroke:#181818;stroke-width:1;"/><polygon fill="#181818" points="508.17,221.4369,498.7641,218.5165,503.2043,222.0214,499.6994,226.4617,508.17,221.4369" style="stroke:#181818;stroke-width:1;"/></g><!--link Admin to AdminDud--><g class="link" data-entity-1="ent0003" data-entity-2="ent0018" data-link-type="dependency" data-source-line="55" id="lnk36"><path d="M122.79,334.7469 C132.69,331.9869 142.94,329.4069 152.72,327.4369 C271.16,303.5269 405.5527,291.9967 487.8727,286.6367" fill="none" id="Admin-to-AdminDud" style="stroke:#181818;stroke-width:1;"/><polygon fill="#181818" points="493.86,286.2469,484.6191,282.8401,488.8706,286.5717,485.1389,290.8232,493.86,286.2469" style="stroke:#181818;stroke-width:1;"/></g><!--link Admin to AdminBorrow--><g class="link" data-entity-1="ent0003" data-entity-2="ent0019" data-link-type="dependency" data-source-line="56" id="lnk37"><path d="M123.04,352.9669 C218.01,352.2069 400.4002,350.7452 497.2802,349.9652" fill="none" id="Admin-to-AdminBorrow" style="stroke:#181818;stroke-width:1;"/><polygon fill="#181818" points="503.28,349.9169,494.2481,345.9895,498.2802,349.9571,494.3125,353.9892,503.28,349.9169" style="stroke:#181818;stroke-width:1;"/></g><!--link Admin to AdminInventory--><g class="link" data-entity-1="ent0003" data-entity-2="ent0020" data-link-type="dependency" data-source-line="57" id="lnk38"><path d="M123.04,360.4869 C219.55,372.2969 406.5744,395.1783 501.9644,406.8483" fill="none" id="Admin-to-AdminInventory" style="stroke:#181818;stroke-width:1;"/><polygon fill="#181818" points="507.92,407.5769,499.4723,402.5136,502.957,406.9697,498.5009,410.4544,507.92,407.5769" style="stroke:#181818;stroke-width:1;"/></g><!--link Admin to AdminActivity--><g class="link" data-entity-1="ent0003" data-entity-2="ent0021" data-link-type="dependency" data-source-line="58" id="lnk39"><path d="M123.18,377.4869 C176.8,398.8769 259.26,429.4669 333.43,447.4369 C391.55,461.5069 453.5393,469.4148 500.5293,474.0748" fill="none" id="Admin-to-AdminActivity" style="stroke:#181818;stroke-width:1;"/><polygon fill="#181818" points="506.5,474.6669,497.9387,469.7982,501.5244,474.1734,497.1492,477.7592,506.5,474.6669" style="stroke:#181818;stroke-width:1;"/></g><!--link Admin to AdminAudit--><g class="link" data-entity-1="ent0003" data-entity-2="ent0022" data-link-type="dependency" data-source-line="59" id="lnk40"><path d="M103.02,314.8469 C125.09,293.7969 154.33,268.4369 183.72,250.4369 C245.88,212.3469 263.4,203.6869 333.43,183.4369 C388.58,167.4869 447.4955,159.6291 494.3455,155.2991" fill="none" id="Admin-to-AdminAudit" style="stroke:#181818;stroke-width:1;"/><polygon fill="#181818" points="500.32,154.7469,490.9901,151.5921,495.3412,155.207,491.7263,159.5582,500.32,154.7469" style="stroke:#181818;stroke-width:1;"/></g><!--link Admin to User--><g class="link" data-entity-1="ent0003" data-entity-2="ent0002" data-link-type="extension" data-source-line="60" id="lnk41"><path d="M77.38,391.7969 C107.32,487.3269 179.5671,717.8506 209.5871,813.6406" fill="none" id="Admin-to-User" style="stroke:#181818;stroke-width:1;"/><polygon fill="none" points="214.97,830.8169,215.3125,811.8463,203.8616,815.4349,214.97,830.8169" style="stroke:#181818;stroke-width:1;"/></g><!--link UCPuzzle to UCLogin--><g class="link" data-entity-1="ent0006" data-entity-2="ent0005" data-link-type="dependency" data-source-line="62" id="lnk42"><path d="M1027.2,919.3869 C1058.99,910.7869 1103.85,898.3569 1142.89,886.4369 C1161.1,880.8769 1175.5244,876.1737 1192.1644,870.5637" fill="none" id="UCPuzzle-to-UCLogin" style="stroke:#181818;stroke-width:1;stroke-dasharray:7,7;"/><polygon fill="#181818" points="1197.85,868.6469,1188.0438,867.7317,1193.112,870.2442,1190.5995,875.3125,1197.85,868.6469" style="stroke:#181818;stroke-width:1;"/><text fill="#000000" font-family="Microsoft YaHei" font-size="13" lengthAdjust="spacing" textLength="63.0068" x="1078.89" y="882.5038">&#171;include&#187;</text></g><!--link UCShop to UCLogin--><g class="link" data-entity-1="ent0008" data-entity-2="ent0005" data-link-type="dependency" data-source-line="63" id="lnk43"><path d="M1046.14,862.0069 C1075.37,861.2869 1110.96,860.3669 1142.89,859.4369 C1152.64,859.1469 1156.9732,859.0236 1167.0332,858.6936" fill="none" id="UCShop-to-UCLogin" style="stroke:#181818;stroke-width:1;stroke-dasharray:7,7;"/><polygon fill="#181818" points="1173.03,858.4969,1163.9037,854.7941,1168.0327,858.6608,1164.166,862.7898,1173.03,858.4969" style="stroke:#181818;stroke-width:1;"/><text fill="#000000" font-family="Microsoft YaHei" font-size="13" lengthAdjust="spacing" textLength="63.0068" x="1078.89" y="855.5038">&#171;include&#187;</text></g><!--link UCBorrow to UCLogin--><g class="link" data-entity-1="ent0012" data-entity-2="ent0005" data-link-type="dependency" data-source-line="64" id="lnk44"><path d="M1023.16,746.7169 C1055.64,757.9469 1103.47,775.8869 1142.89,796.4369 C1168.81,809.9369 1191.6722,825.5515 1209.5122,838.5615" fill="none" id="UCBorrow-to-UCLogin" style="stroke:#181818;stroke-width:1;stroke-dasharray:7,7;"/><polygon fill="#181818" points="1214.36,842.0969,1209.4451,833.562,1210.3201,839.1508,1204.7314,840.0258,1214.36,842.0969" style="stroke:#181818;stroke-width:1;"/><text fill="#000000" font-family="Microsoft YaHei" font-size="13" lengthAdjust="spacing" textLength="63.0068" x="1078.89" y="764.5038">&#171;include&#187;</text></g><!--link UCPost to UCLogin--><g class="link" data-entity-1="ent0015" data-entity-2="ent0005" data-link-type="dependency" data-source-line="65" id="lnk45"><path d="M1030.24,809.6869 C1075.1,820.0069 1138.0429,834.491 1182.9229,844.821" fill="none" id="UCPost-to-UCLogin" style="stroke:#181818;stroke-width:1;stroke-dasharray:7,7;"/><polygon fill="#181818" points="1188.77,846.1669,1180.8965,840.2501,1183.8974,845.0454,1179.1021,848.0462,1188.77,846.1669" style="stroke:#181818;stroke-width:1;"/><text fill="#000000" font-family="Microsoft YaHei" font-size="13" lengthAdjust="spacing" textLength="63.0068" x="1078.89" y="817.5038">&#171;include&#187;</text></g><!--link UCAccept to UCPost--><g class="link" data-entity-1="ent0016" data-entity-2="ent0015" data-link-type="dependency" data-source-line="66" id="lnk46"><path d="M628.26,608.9269 C676.52,610.1469 743.78,617.2269 796.43,643.4369 C866.49,678.2969 858.12,721.4469 921.43,767.4369 C931.36,774.6469 937.7563,778.4981 948.3863,783.7281" fill="none" id="UCAccept-to-UCPost" style="stroke:#181818;stroke-width:1;stroke-dasharray:7,7;"/><polygon fill="#181818" points="953.77,786.3769,947.4603,778.8146,949.2836,784.1696,943.9286,785.9928,953.77,786.3769" style="stroke:#181818;stroke-width:1;"/><text fill="#000000" font-family="Microsoft YaHei" font-size="13" lengthAdjust="spacing" textLength="61.1851" x="828.43" y="659.5038">&#171;extend&#187;</text></g><!--link AdminBorrow to UCBorrow--><g class="link" data-entity-1="ent0019" data-entity-2="ent0012" data-link-type="dependency" data-source-line="67" id="lnk47"><path d="M624.86,345.6069 C673.98,345.0969 744.13,350.8269 796.43,381.4369 C927.56,458.1669 970.3367,656.0348 980.2567,713.3448" fill="none" id="AdminBorrow-to-UCBorrow" style="stroke:#181818;stroke-width:1;stroke-dasharray:7,7;"/><polygon fill="#181818" points="981.28,719.2569,983.6864,709.7065,980.4272,714.3301,975.8036,711.071,981.28,719.2569" style="stroke:#181818;stroke-width:1;"/><text fill="#000000" font-family="Microsoft YaHei" font-size="13" lengthAdjust="spacing" textLength="63.0068" x="827.43" y="402.5038">&#171;include&#187;</text></g><!--link AdminInventory to UCShop--><g class="link" data-entity-1="ent0020" data-entity-2="ent0008" data-link-type="dependency" data-source-line="68" id="lnk48"><path d="M623.5,408.5669 C673.76,406.4969 746.3,411.2069 796.43,447.4369 C806.04,454.3769 887.84,627.1369 891.43,638.4369 C917.74,721.1569 870.64,761.0369 921.43,831.4369 C927.76,840.2069 931.8423,844.0558 941.4723,848.8658" fill="none" id="AdminInventory-to-UCShop" style="stroke:#181818;stroke-width:1;stroke-dasharray:7,7;"/><polygon fill="#181818" points="946.84,851.5469,940.5759,843.9468,942.3669,849.3127,937.0011,851.1037,946.84,851.5469" style="stroke:#181818;stroke-width:1;"/><text fill="#000000" font-family="Microsoft YaHei" font-size="13" lengthAdjust="spacing" textLength="63.0068" x="827.43" y="500.5038">&#171;include&#187;</text></g><?plantuml-src VLNVJzjM57xtNt6LFjE84iGsLKYKgTgaRPesxM6FhdqTB18REKwxjfl4ZuQ6GEBGXWu87KkK41vQGzKsWmIIFwQ-zpfF_0kzzdMSwvJn4lcU-ttd77_dEuwfcYa8j4LSEaP5o-aTuLATs3LINYVlkwHx22O0gHmxlKrKxGafg9Z0r86X9XTC8Ai6b4nLruJCegejYOQO1Wz4QJ5fw5bDdjTJkW5kALyfeY9n21agOZPbtjSryoSn3S6FgcJe6Pqc_bty3geSChCWoleZLKi2HKnb87UJpK19p43mL03WtXSL5MK6ojwDRiZG2A9JYGHCJDAeLpY8JSxScPvE27zncKN9f3TFls1F9IQdfyVOofslfsOeMs2a6Dwp1ylxL2sS_o_Eb8m1CGD-oq1ZY67IektTE6dqK3MG6hrRzP5pSbhL1C6JLTIIT2unDWItTqvsjgukzb7FTlerT6gHuqtKiPopKf2WN4BMQSnlV2XEZ85nAOzVhv6zBhhSOUtC_w0dQHaEYKyi_7VJFJqOr7V9smhz3P0_PvyyIS48zB193ZP9wmJbr_7HGO3xHTGM8wLpsxXOPoYqiuvUhWJ0NnVqfKYw3rrKECQ59YeNuyXwXTlv03b7hVLGDHz7q5RPwJIGLHmSvL6tuzfs0BuFeUnPZmUJxWTSQB0vqEnauta0dXSDETBiyk5WDuSsMlZWJTmvFoBlYW6IUi3G7qKw-6YvhJnT5hTOHkivP9yF5O2Idav3BPBvswoCSky75TizAJgT5_HD0pIzY7HWRQEpDQUpwNJRg5N16w7-UiQCb2yrSQKTH_OMpfSZo3b9Wakcm8C7zMUktUDdEp8P6oou1IK5Aag4bIkIIzlhlFeFQXJTrZEKtniHwSLrB5ApNRl1bCGVLzpBDoCAK_5QbZyYr7c9tkx6FPySbaQqxxM7KADBy_Z_cSmzo5h5EwSZuj0vr_6OVPc3wFOWk-RQDOwQbLKpvD7LzdONJ4pCXbl31OBbu2B-6d1dt-tSEVGq5mkjoyLyXtBdm8TyfT1kND1p5T-VPvv8TMOH_qtz66U5yQYNQomKT34M3SSqVX6-x7ZSqpWC_ZdBle_2K4zm-tQeDlW6tBshQb8gAyFPMO49UYCWyDfD44-M6m5Cfm3Yepq4_CEaSbC0xsc62GxHF6CUPaY__oXEq7GJWWUwQUffwbJ-JuG-kFtd_6VSxLTHhed_FKFzDUTi7nLgLnTLoWh_LaYtXJVwV1BA6koLhowsq7bxK7-D6g_Oxh0lmgVb5RRXz87j8NrWQ-MjXx_FfD36ookVbbS5AW3mslqC?></g></svg>